<svg xmlns="http://www.w3.org/2000/svg" viewBox="0 0 32 50"><defs><style>.a{fill:#73034c;}.b{fill:#260119;}.c{fill:#330222;}</style></defs><title>location-pin</title><path class="a" d="M16,46.25A27.943,27.943,0,0,0,8.6,30.443c-.637-.626-1.244-1.177-1.857-1.685l-.765-.605a15.745,15.745,0,1,1,21.169-1.009,13.8,13.8,0,0,1-1.121,1.01c-.257.2-.508.4-.759.6-.617.511-1.224,1.062-1.86,1.686A27.949,27.949,0,0,0,16,46.25Z"/><path class="b" d="M16,.5A15.508,15.508,0,0,1,26.966,26.966a13.269,13.269,0,0,1-1.091.988c-.262.2-.515.4-.774.611-.614.509-1.226,1.064-1.875,1.7A27.85,27.85,0,0,0,16,44.663a27.87,27.87,0,0,0-7.229-14.4c-.646-.634-1.258-1.189-1.881-1.705l-.751-.593A15.5,15.5,0,0,1,16,.5M16,0A16,16,0,0,0,5.82,28.35l.76.6c.64.53,1.25,1.09,1.84,1.67C13.1,35.31,16,42.85,16,50c0-7.15,2.9-14.69,7.58-19.38.59-.58,1.2-1.14,1.84-1.67.25-.2.5-.4.76-.6a13.938,13.938,0,0,0,1.14-1.03A16,16,0,0,0,16,0Z"/><circle class="c" cx="16" cy="15.946" r="11.32"/></svg>