<?xml version="1.0" encoding="utf-8"?>
<!-- Generator: Adobe Illustrator 23.0.1, SVG Export Plug-In . SVG Version: 6.00 Build 0)  -->
<svg version="1.1" id="Lager_1" xmlns="http://www.w3.org/2000/svg" xmlns:xlink="http://www.w3.org/1999/xlink" x="0px" y="0px"
	 viewBox="0 0 1920 1080" style="enable-background:new 0 0 1920 1080;" xml:space="preserve">
<style type="text/css">
	.st0{fill:#35DBC3;}
	.st1{fill:none;}
	.st2{enable-background:new    ;}
	.st3{fill:#FFFFFF;}
	.st4{fill:#CCEDFF;}
	.st5{fill:#595959;}
	.st6{fill:#32AAE0;}
	.st7{fill:#006CC4;}
</style>
<g>
	<g>
		<rect x="119" y="844.2" class="st0" width="740" height="134"/>
		<rect x="119" y="894.2" class="st1" width="740" height="84"/>
		<g class="st2">
			<path class="st3" d="M387.9,896.1v15.2h17.6v-15.2h4.8v36.4h-4.8v-17.1h-17.6v17.1h-4.7v-36.4H387.9z"/>
			<path class="st3" d="M432.7,932.5l-0.4-3.3h-0.2c-1.5,2.1-4.3,3.9-8,3.9c-5.3,0-8-3.7-8-7.5c0-6.3,5.6-9.8,15.7-9.7v-0.5
				c0-2.2-0.6-6-5.9-6c-2.4,0-5,0.8-6.8,1.9l-1.1-3.1c2.2-1.4,5.3-2.3,8.6-2.3c8,0,9.9,5.5,9.9,10.7v9.8c0,2.3,0.1,4.5,0.4,6.3
				H432.7z M432,919.2c-5.2-0.1-11.1,0.8-11.1,5.9c0,3.1,2.1,4.5,4.5,4.5c3.4,0,5.6-2.2,6.3-4.4c0.2-0.5,0.3-1,0.3-1.5V919.2z"/>
			<path class="st3" d="M444.3,914.6c0-3.1-0.1-5.7-0.2-8.2h4.2l0.2,5.1h0.2c1.2-3.5,4-5.7,7.2-5.7c0.5,0,0.9,0.1,1.4,0.2v4.5
				c-0.5-0.1-1-0.2-1.6-0.2c-3.3,0-5.7,2.5-6.4,6.1c-0.1,0.6-0.2,1.4-0.2,2.2v13.9h-4.7V914.6z"/>
			<path class="st3" d="M484,894.2v31.6c0,2.3,0.1,5,0.2,6.8h-4.3l-0.2-4.5h-0.1c-1.5,2.9-4.6,5.1-8.9,5.1
				c-6.3,0-11.2-5.3-11.2-13.3c-0.1-8.7,5.3-14,11.7-14c4,0,6.7,1.9,7.9,4h0.1v-15.6H484z M479.2,917c0-0.6-0.1-1.4-0.2-2
				c-0.7-3-3.3-5.5-6.9-5.5c-4.9,0-7.8,4.3-7.8,10.1c0,5.3,2.6,9.7,7.7,9.7c3.2,0,6.1-2.1,7-5.7c0.2-0.6,0.2-1.3,0.2-2.1V917z"/>
			<path class="st3" d="M493.7,906.4l3.5,13.3c0.8,2.9,1.5,5.6,1.9,8.3h0.2c0.6-2.6,1.5-5.5,2.3-8.3l4.3-13.3h4l4,13.1
				c1,3.1,1.7,5.9,2.3,8.5h0.2c0.4-2.6,1.1-5.4,2-8.5l3.7-13.1h4.7l-8.4,26.1h-4.3l-4-12.5c-0.9-2.9-1.7-5.5-2.3-8.6h-0.1
				c-0.6,3.1-1.5,5.8-2.4,8.6l-4.2,12.4h-4.3l-7.9-26.1H493.7z"/>
			<path class="st3" d="M545.8,932.5l-0.4-3.3h-0.2c-1.5,2.1-4.3,3.9-8,3.9c-5.3,0-8-3.7-8-7.5c0-6.3,5.6-9.8,15.7-9.7v-0.5
				c0-2.2-0.6-6-5.9-6c-2.4,0-5,0.8-6.8,1.9l-1.1-3.1c2.2-1.4,5.3-2.3,8.6-2.3c8,0,9.9,5.5,9.9,10.7v9.8c0,2.3,0.1,4.5,0.4,6.3
				H545.8z M545.1,919.2c-5.2-0.1-11.1,0.8-11.1,5.9c0,3.1,2.1,4.5,4.5,4.5c3.4,0,5.6-2.2,6.3-4.4c0.2-0.5,0.3-1,0.3-1.5V919.2z"/>
			<path class="st3" d="M557.4,914.6c0-3.1-0.1-5.7-0.2-8.2h4.2l0.2,5.1h0.2c1.2-3.5,4-5.7,7.2-5.7c0.5,0,0.9,0.1,1.4,0.2v4.5
				c-0.5-0.1-1-0.2-1.6-0.2c-3.3,0-5.7,2.5-6.4,6.1c-0.1,0.6-0.2,1.4-0.2,2.2v13.9h-4.7V914.6z"/>
			<path class="st3" d="M577.2,920.3c0.1,6.4,4.2,9.1,9,9.1c3.4,0,5.5-0.6,7.2-1.4l0.8,3.4c-1.7,0.8-4.5,1.6-8.7,1.6
				c-8,0-12.9-5.3-12.9-13.2c0-7.9,4.6-14.1,12.3-14.1c8.5,0,10.8,7.5,10.8,12.3c0,1-0.1,1.7-0.2,2.2H577.2z M591.1,916.9
				c0.1-3-1.2-7.7-6.6-7.7c-4.8,0-6.9,4.4-7.3,7.7H591.1z"/>
		</g>
	</g>
	<rect x="119" y="694.2" class="st4" width="740" height="134"/>
	<rect x="119" y="744.2" class="st1" width="740" height="84"/>
	<g class="st2">
		<path class="st5" d="M237.9,746.1v15.2h17.6v-15.2h4.8v36.4h-4.8v-17.1h-17.6v17.1h-4.7v-36.4H237.9z"/>
		<path class="st5" d="M291.9,769.3c0,9.7-6.7,13.9-13,13.9c-7.1,0-12.5-5.2-12.5-13.4c0-8.7,5.7-13.9,13-13.9
			C286.9,755.8,291.9,761.3,291.9,769.3z M271.2,769.5c0,5.7,3.3,10,7.9,10c4.5,0,7.9-4.3,7.9-10.2c0-4.4-2.2-10-7.8-10
			S271.2,764.6,271.2,769.5z"/>
		<path class="st5" d="M297.3,777.7c1.4,0.9,3.9,1.9,6.3,1.9c3.5,0,5.1-1.7,5.1-3.9c0-2.3-1.4-3.5-4.9-4.8c-4.7-1.7-6.9-4.3-6.9-7.4
			c0-4.2,3.4-7.7,9-7.7c2.6,0,5,0.8,6.4,1.6l-1.2,3.5c-1-0.6-2.9-1.5-5.3-1.5c-2.8,0-4.4,1.6-4.4,3.6c0,2.2,1.6,3.1,5,4.4
			c4.5,1.7,6.9,4,6.9,7.9c0,4.6-3.6,7.8-9.8,7.8c-2.9,0-5.5-0.7-7.3-1.8L297.3,777.7z"/>
		<path class="st5" d="M325,748.9v7.5h6.8v3.6H325v14.1c0,3.2,0.9,5.1,3.6,5.1c1.2,0,2.2-0.2,2.8-0.3l0.2,3.6
			c-0.9,0.4-2.4,0.6-4.2,0.6c-2.2,0-4-0.7-5.1-2c-1.3-1.4-1.8-3.7-1.8-6.8V760h-4v-3.6h4v-6.3L325,748.9z"/>
		<path class="st5" d="M379.9,764c0,12.5-7.6,19.2-16.9,19.2c-9.6,0-16.4-7.5-16.4-18.5c0-11.6,7.2-19.1,16.9-19.1
			C373.5,745.5,379.9,753.2,379.9,764z M351.7,764.6c0,7.8,4.2,14.7,11.6,14.7c7.5,0,11.7-6.9,11.7-15.1c0-7.2-3.8-14.8-11.6-14.8
			C355.5,749.4,351.7,756.6,351.7,764.6z"/>
		<path class="st5" d="M385.8,764.9c0-3.3-0.1-6-0.2-8.5h4.3l0.2,4.5h0.1c1.9-3.2,5-5.1,9.3-5.1c6.3,0,11.1,5.3,11.1,13.3
			c0,9.4-5.7,14-11.9,14c-3.5,0-6.5-1.5-8-4.1h-0.1v14.2h-4.7V764.9z M390.5,771.9c0,0.7,0.1,1.3,0.2,1.9c0.9,3.3,3.7,5.6,7.1,5.6
			c5,0,7.9-4.1,7.9-10.1c0-5.2-2.8-9.7-7.8-9.7c-3.2,0-6.3,2.3-7.2,5.9c-0.2,0.6-0.3,1.3-0.3,1.9V771.9z"/>
		<path class="st5" d="M419.2,770.3c0.1,6.4,4.2,9.1,9,9.1c3.4,0,5.5-0.6,7.2-1.4l0.8,3.4c-1.7,0.8-4.5,1.6-8.7,1.6
			c-8,0-12.9-5.3-12.9-13.2c0-7.9,4.6-14.1,12.3-14.1c8.5,0,10.8,7.5,10.8,12.3c0,1-0.1,1.7-0.2,2.2H419.2z M433.1,766.9
			c0.1-3-1.2-7.7-6.6-7.7c-4.8,0-6.9,4.4-7.3,7.7H433.1z"/>
		<path class="st5" d="M443.6,764.6c0-3.1-0.1-5.7-0.2-8.2h4.2l0.2,5.1h0.2c1.2-3.5,4-5.7,7.2-5.7c0.5,0,0.9,0.1,1.4,0.2v4.5
			c-0.5-0.1-1-0.2-1.6-0.2c-3.3,0-5.7,2.5-6.4,6.1c-0.1,0.6-0.2,1.4-0.2,2.2v13.9h-4.7V764.6z"/>
		<path class="st5" d="M475.5,782.5l-0.4-3.3h-0.2c-1.5,2.1-4.3,3.9-8,3.9c-5.3,0-8-3.7-8-7.5c0-6.3,5.6-9.8,15.7-9.7v-0.5
			c0-2.2-0.6-6-5.9-6c-2.4,0-5,0.8-6.8,1.9l-1.1-3.1c2.2-1.4,5.3-2.3,8.6-2.3c8,0,9.9,5.5,9.9,10.7v9.8c0,2.3,0.1,4.5,0.4,6.3H475.5
			z M474.8,769.2c-5.2-0.1-11.1,0.8-11.1,5.9c0,3.1,2.1,4.5,4.5,4.5c3.4,0,5.6-2.2,6.3-4.4c0.2-0.5,0.3-1,0.3-1.5V769.2z"/>
		<path class="st5" d="M492.5,748.9v7.5h6.8v3.6h-6.8v14.1c0,3.2,0.9,5.1,3.6,5.1c1.2,0,2.2-0.2,2.8-0.3l0.2,3.6
			c-0.9,0.4-2.4,0.6-4.2,0.6c-2.2,0-4-0.7-5.1-2c-1.3-1.4-1.8-3.7-1.8-6.8V760h-4v-3.6h4v-6.3L492.5,748.9z"/>
		<path class="st5" d="M510,749.1c0.1,1.6-1.1,2.9-3,2.9c-1.7,0-2.9-1.3-2.9-2.9c0-1.7,1.2-3,3-3C508.8,746.1,510,747.4,510,749.1z
			 M504.7,782.5v-26.1h4.8v26.1H504.7z"/>
		<path class="st5" d="M517.3,763.5c0-2.7-0.1-4.9-0.2-7.1h4.2l0.3,4.3h0.1c1.3-2.5,4.3-4.9,8.6-4.9c3.6,0,9.2,2.2,9.2,11.1v15.6
			h-4.8v-15.1c0-4.2-1.6-7.7-6-7.7c-3.1,0-5.6,2.2-6.4,4.9c-0.2,0.6-0.3,1.4-0.3,2.2v15.7h-4.8V763.5z"/>
		<path class="st5" d="M569.8,756.4c-0.1,1.9-0.2,4-0.2,7.2v15.2c0,6-1.2,9.7-3.7,11.9c-2.5,2.4-6.2,3.1-9.5,3.1
			c-3.1,0-6.6-0.8-8.7-2.2l1.2-3.6c1.7,1.1,4.4,2.1,7.7,2.1c4.9,0,8.4-2.5,8.4-9.1v-2.9h-0.1c-1.5,2.4-4.3,4.4-8.3,4.4
			c-6.5,0-11.1-5.5-11.1-12.7c0-8.9,5.8-13.9,11.8-13.9c4.5,0,7,2.4,8.2,4.5h0.1l0.2-3.9H569.8z M564.9,766.7c0-0.8-0.1-1.5-0.3-2.2
			c-0.9-2.8-3.2-5-6.6-5c-4.5,0-7.8,3.8-7.8,9.9c0,5.1,2.6,9.4,7.7,9.4c2.9,0,5.6-1.8,6.6-4.9c0.3-0.8,0.4-1.7,0.4-2.5V766.7z"/>
		<path class="st5" d="M588.4,776.8c2.1,1.3,5.2,2.4,8.4,2.4c4.8,0,7.6-2.5,7.6-6.2c0-3.4-1.9-5.3-6.9-7.2
			c-5.9-2.1-9.6-5.2-9.6-10.3c0-5.7,4.7-9.9,11.8-9.9c3.7,0,6.4,0.9,8,1.8l-1.3,3.8c-1.2-0.6-3.6-1.7-6.9-1.7c-5,0-6.9,3-6.9,5.5
			c0,3.4,2.2,5.1,7.2,7c6.2,2.4,9.3,5.3,9.3,10.7c0,5.6-4.2,10.5-12.7,10.5c-3.5,0-7.3-1-9.3-2.3L588.4,776.8z"/>
		<path class="st5" d="M616.8,756.4l5.7,15.4c0.6,1.7,1.2,3.8,1.7,5.3h0.1c0.5-1.6,1-3.6,1.7-5.5l5.2-15.3h5l-7.1,18.6
			c-3.4,9-5.7,13.6-9,16.4c-2.3,2.1-4.6,2.9-5.8,3.1l-1.2-4c1.2-0.4,2.8-1.1,4.2-2.3c1.3-1,2.9-2.9,4-5.3c0.2-0.5,0.4-0.9,0.4-1.1
			c0-0.3-0.1-0.6-0.3-1.2l-9.7-24.1H616.8z"/>
		<path class="st5" d="M639.6,777.7c1.4,0.9,3.9,1.9,6.3,1.9c3.5,0,5.1-1.7,5.1-3.9c0-2.3-1.4-3.5-4.9-4.8c-4.7-1.7-6.9-4.3-6.9-7.4
			c0-4.2,3.4-7.7,9-7.7c2.6,0,5,0.8,6.4,1.6l-1.2,3.5c-1-0.6-2.9-1.5-5.3-1.5c-2.8,0-4.4,1.6-4.4,3.6c0,2.2,1.6,3.1,5,4.4
			c4.5,1.7,6.9,4,6.9,7.9c0,4.6-3.6,7.8-9.8,7.8c-2.9,0-5.5-0.7-7.3-1.8L639.6,777.7z"/>
		<path class="st5" d="M667.3,748.9v7.5h6.8v3.6h-6.8v14.1c0,3.2,0.9,5.1,3.6,5.1c1.2,0,2.2-0.2,2.8-0.3l0.2,3.6
			c-0.9,0.4-2.4,0.6-4.2,0.6c-2.2,0-4-0.7-5.1-2c-1.3-1.4-1.8-3.7-1.8-6.8V760h-4v-3.6h4v-6.3L667.3,748.9z"/>
		<path class="st5" d="M681.8,770.3c0.1,6.4,4.2,9.1,9,9.1c3.4,0,5.5-0.6,7.2-1.4l0.8,3.4c-1.7,0.8-4.5,1.6-8.7,1.6
			c-8,0-12.9-5.3-12.9-13.2c0-7.9,4.6-14.1,12.3-14.1c8.5,0,10.8,7.5,10.8,12.3c0,1-0.1,1.7-0.2,2.2H681.8z M695.7,766.9
			c0.1-3-1.2-7.7-6.6-7.7c-4.8,0-6.9,4.4-7.3,7.7H695.7z"/>
		<path class="st5" d="M706.2,763.5c0-2.7-0.1-4.9-0.2-7.1h4.2l0.2,4.2h0.2c1.5-2.5,3.9-4.8,8.2-4.8c3.6,0,6.3,2.2,7.4,5.2h0.1
			c0.8-1.5,1.8-2.6,2.9-3.4c1.6-1.2,3.3-1.8,5.8-1.8c3.5,0,8.6,2.3,8.6,11.3v15.4h-4.6v-14.8c0-5-1.8-8-5.7-8c-2.7,0-4.8,2-5.6,4.3
			c-0.2,0.6-0.4,1.5-0.4,2.4v16.1h-4.6v-15.7c0-4.2-1.8-7.2-5.5-7.2c-3,0-5.1,2.4-5.9,4.8c-0.3,0.7-0.4,1.5-0.4,2.3v15.8h-4.6V763.5
			z"/>
	</g>
	<g>
		<rect x="119" y="545.2" class="st6" width="740" height="134"/>
		<rect x="119" y="595.2" class="st1" width="740" height="84"/>
		<g class="st2">
			<path class="st3" d="M413.2,597.6c2.9-0.4,6.3-0.8,10-0.8c6.8,0,11.6,1.6,14.7,4.5c3.2,3,5.1,7.2,5.1,13.1
				c0,5.9-1.8,10.8-5.2,14.1c-3.4,3.4-9,5.2-16.1,5.2c-3.3,0-6.2-0.2-8.5-0.4V597.6z M417.9,629.8c1.2,0.2,2.9,0.3,4.8,0.3
				c10,0,15.5-5.6,15.5-15.4c0.1-8.6-4.8-14-14.7-14c-2.4,0-4.3,0.2-5.5,0.5V629.8z"/>
			<path class="st3" d="M472.9,620.3c0,9.7-6.7,13.9-13,13.9c-7.1,0-12.5-5.2-12.5-13.4c0-8.7,5.7-13.9,13-13.9
				C467.8,606.8,472.9,612.3,472.9,620.3z M452.1,620.5c0,5.7,3.3,10,7.9,10c4.5,0,7.9-4.3,7.9-10.2c0-4.4-2.2-10-7.8-10
				S452.1,615.6,452.1,620.5z"/>
			<path class="st3" d="M497.5,632.6c-1.2,0.6-4,1.5-7.5,1.5c-7.9,0-13-5.3-13-13.3c0-8,5.5-13.9,14-13.9c2.8,0,5.3,0.7,6.6,1.4
				l-1.1,3.7c-1.1-0.6-2.9-1.2-5.5-1.2c-6,0-9.2,4.4-9.2,9.9c0,6,3.9,9.8,9.1,9.8c2.7,0,4.5-0.7,5.8-1.3L497.5,632.6z"/>
			<path class="st3" d="M507.7,619.4h0.1c0.6-0.9,1.6-2.1,2.3-3l7.7-9h5.7l-10.1,10.7l11.5,15.4h-5.8l-9-12.5l-2.4,2.7v9.8H503
				v-38.3h4.7V619.4z"/>
			<path class="st3" d="M531,621.3c0.1,6.4,4.2,9.1,9,9.1c3.4,0,5.5-0.6,7.2-1.4l0.8,3.4c-1.7,0.8-4.5,1.6-8.7,1.6
				c-8,0-12.9-5.3-12.9-13.2c0-7.9,4.6-14.1,12.3-14.1c8.5,0,10.8,7.5,10.8,12.3c0,1-0.1,1.7-0.2,2.2H531z M544.9,617.9
				c0.1-3-1.2-7.7-6.6-7.7c-4.8,0-6.9,4.4-7.3,7.7H544.9z"/>
			<path class="st3" d="M555.4,615.6c0-3.1-0.1-5.7-0.2-8.2h4.2l0.2,5.1h0.2c1.2-3.5,4-5.7,7.2-5.7c0.5,0,0.9,0.1,1.4,0.2v4.5
				c-0.5-0.1-1-0.2-1.6-0.2c-3.3,0-5.7,2.5-6.4,6.1c-0.1,0.6-0.2,1.4-0.2,2.2v13.9h-4.7V615.6z"/>
		</g>
	</g>
	<rect x="119" y="234.2" class="st7" width="136.2" height="295"/>
	<rect x="270.2" y="234.2" class="st7" width="136.2" height="295"/>
	<rect x="119" y="234.2" class="st7" width="136.2" height="295"/>
	<rect x="119" y="234.2" class="st7" width="136.2" height="295"/>
	<rect x="119" y="234.2" class="st7" width="136.2" height="295"/>
	<rect x="119" y="234.2" class="st7" width="136.2" height="295"/>
	<rect x="119" y="234.2" class="st7" width="136.2" height="295"/>
	<rect x="119" y="234.2" class="st7" width="136.2" height="295"/>
	<rect x="119" y="234.2" class="st7" width="136.2" height="295"/>
	<rect x="119" y="234.2" class="st7" width="136.2" height="295"/>
	<rect x="421.4" y="234.2" class="st7" width="136.2" height="295"/>
	<rect x="572.5" y="234.2" class="st7" width="136.2" height="295"/>
	<rect x="722.8" y="234.2" class="st7" width="136.2" height="295"/>
	<rect x="421.4" y="234.2" class="st7" width="136.2" height="295"/>
	<rect x="421.4" y="234.2" class="st7" width="136.2" height="295"/>
	<rect x="421.4" y="234.2" class="st7" width="136.2" height="295"/>
	<rect x="421.4" y="234.2" class="st7" width="136.2" height="295"/>
	<rect x="421.4" y="234.2" class="st7" width="136.2" height="295"/>
	<rect x="421.4" y="234.2" class="st7" width="136.2" height="295"/>
	<rect x="421.4" y="234.2" class="st7" width="136.2" height="295"/>
	<rect x="421.4" y="234.2" class="st7" width="136.2" height="295"/>
	<rect x="1061" y="490.2" class="st4" width="136.2" height="187"/>
	<rect x="1212.2" y="490.2" class="st4" width="136.2" height="187"/>
	<rect x="1061" y="490.2" class="st4" width="136.2" height="187"/>
	<rect x="1061" y="490.2" class="st4" width="136.2" height="187"/>
	<rect x="1061" y="490.2" class="st4" width="136.2" height="187"/>
	<rect x="1061" y="490.2" class="st4" width="136.2" height="187"/>
	<rect x="1061" y="490.2" class="st4" width="136.2" height="187"/>
	<rect x="1061" y="490.2" class="st4" width="136.2" height="187"/>
	<rect x="1061" y="490.2" class="st4" width="136.2" height="187"/>
	<rect x="1061" y="490.2" class="st4" width="136.2" height="187"/>
	<rect x="1363.4" y="490.2" class="st4" width="136.2" height="187"/>
	<rect x="1514.5" y="490.2" class="st4" width="136.2" height="187"/>
	<rect x="1664.8" y="490.2" class="st4" width="136.2" height="187"/>
	<rect x="1363.4" y="490.2" class="st4" width="136.2" height="187"/>
	<rect x="1363.4" y="490.2" class="st4" width="136.2" height="187"/>
	<rect x="1363.4" y="490.2" class="st4" width="136.2" height="187"/>
	<rect x="1363.4" y="490.2" class="st4" width="136.2" height="187"/>
	<rect x="1363.4" y="490.2" class="st4" width="136.2" height="187"/>
	<rect x="1363.4" y="490.2" class="st4" width="136.2" height="187"/>
	<rect x="1363.4" y="490.2" class="st4" width="136.2" height="187"/>
	<rect x="1363.4" y="490.2" class="st4" width="136.2" height="187"/>
	<g>
		<rect x="1061" y="844.2" class="st0" width="740" height="134"/>
		<rect x="1061" y="894.2" class="st1" width="740" height="84"/>
		<g class="st2">
			<path class="st3" d="M1329.9,896.1v15.2h17.6v-15.2h4.8v36.4h-4.8v-17.1h-17.6v17.1h-4.7v-36.4H1329.9z"/>
			<path class="st3" d="M1374.7,932.5l-0.4-3.3h-0.2c-1.5,2.1-4.3,3.9-8,3.9c-5.3,0-8-3.7-8-7.5c0-6.3,5.6-9.8,15.7-9.7v-0.5
				c0-2.2-0.6-6-5.9-6c-2.4,0-5,0.8-6.8,1.9l-1.1-3.1c2.2-1.4,5.3-2.3,8.6-2.3c8,0,9.9,5.5,9.9,10.7v9.8c0,2.3,0.1,4.5,0.4,6.3
				H1374.7z M1374,919.2c-5.2-0.1-11.1,0.8-11.1,5.9c0,3.1,2.1,4.5,4.5,4.5c3.4,0,5.6-2.2,6.3-4.4c0.2-0.5,0.3-1,0.3-1.5V919.2z"/>
			<path class="st3" d="M1386.3,914.6c0-3.1-0.1-5.7-0.2-8.2h4.2l0.2,5.1h0.2c1.2-3.5,4-5.7,7.2-5.7c0.5,0,0.9,0.1,1.3,0.2v4.5
				c-0.5-0.1-1-0.2-1.6-0.2c-3.3,0-5.7,2.5-6.4,6.1c-0.1,0.6-0.2,1.4-0.2,2.2v13.9h-4.7V914.6z"/>
			<path class="st3" d="M1426,894.2v31.6c0,2.3,0.1,5,0.2,6.8h-4.3l-0.2-4.5h-0.1c-1.5,2.9-4.6,5.1-8.9,5.1
				c-6.3,0-11.2-5.3-11.2-13.3c-0.1-8.7,5.3-14,11.7-14c4,0,6.7,1.9,7.9,4h0.1v-15.6H1426z M1421.2,917c0-0.6-0.1-1.4-0.2-2
				c-0.7-3-3.3-5.5-6.9-5.5c-4.9,0-7.8,4.3-7.8,10.1c0,5.3,2.6,9.7,7.7,9.7c3.2,0,6.1-2.1,7-5.7c0.2-0.6,0.2-1.3,0.2-2.1V917z"/>
			<path class="st3" d="M1435.7,906.4l3.5,13.3c0.8,2.9,1.5,5.6,1.9,8.3h0.2c0.6-2.6,1.5-5.5,2.3-8.3l4.3-13.3h4l4,13.1
				c1,3.1,1.7,5.9,2.3,8.5h0.2c0.4-2.6,1.1-5.4,2-8.5l3.7-13.1h4.7l-8.4,26.1h-4.3l-4-12.5c-0.9-2.9-1.7-5.5-2.3-8.6h-0.1
				c-0.6,3.1-1.5,5.8-2.4,8.6l-4.2,12.4h-4.3l-7.9-26.1H1435.7z"/>
			<path class="st3" d="M1487.8,932.5l-0.4-3.3h-0.2c-1.5,2.1-4.3,3.9-8,3.9c-5.3,0-8-3.7-8-7.5c0-6.3,5.6-9.8,15.7-9.7v-0.5
				c0-2.2-0.6-6-5.9-6c-2.4,0-5,0.8-6.8,1.9l-1.1-3.1c2.2-1.4,5.3-2.3,8.6-2.3c8,0,9.9,5.5,9.9,10.7v9.8c0,2.3,0.1,4.5,0.4,6.3
				H1487.8z M1487.1,919.2c-5.2-0.1-11.1,0.8-11.1,5.9c0,3.1,2.1,4.5,4.5,4.5c3.4,0,5.6-2.2,6.3-4.4c0.2-0.5,0.3-1,0.3-1.5V919.2z"
				/>
			<path class="st3" d="M1499.4,914.6c0-3.1-0.1-5.7-0.2-8.2h4.2l0.2,5.1h0.2c1.2-3.5,4.1-5.7,7.2-5.7c0.5,0,0.9,0.1,1.3,0.2v4.5
				c-0.5-0.1-1-0.2-1.6-0.2c-3.3,0-5.7,2.5-6.4,6.1c-0.1,0.6-0.2,1.4-0.2,2.2v13.9h-4.7V914.6z"/>
			<path class="st3" d="M1519.2,920.3c0.1,6.4,4.2,9.1,9,9.1c3.4,0,5.5-0.6,7.2-1.4l0.8,3.4c-1.7,0.8-4.5,1.6-8.7,1.6
				c-8,0-12.9-5.3-12.9-13.2c0-7.9,4.6-14.1,12.3-14.1c8.5,0,10.8,7.5,10.8,12.3c0,1-0.1,1.7-0.2,2.2H1519.2z M1533.1,916.9
				c0.1-3-1.2-7.7-6.6-7.7c-4.8,0-6.9,4.4-7.3,7.7H1533.1z"/>
		</g>
	</g>
	<g>
		<rect x="1061" y="694.2" class="st6" width="740" height="134"/>
		<rect x="1061" y="744.2" class="st1" width="740" height="84"/>
		<g class="st2">
			<path class="st3" d="M1318.1,746.1v15.2h17.6v-15.2h4.8v36.4h-4.8v-17.1h-17.6v17.1h-4.7v-36.4H1318.1z"/>
			<path class="st3" d="M1350.7,756.4l5.7,15.4c0.6,1.7,1.2,3.8,1.7,5.3h0.1c0.5-1.6,1-3.6,1.7-5.5l5.2-15.3h5l-7.1,18.6
				c-3.4,9-5.7,13.6-9,16.4c-2.3,2.1-4.6,2.9-5.8,3.1l-1.2-4c1.2-0.4,2.8-1.1,4.2-2.3c1.3-1,2.9-2.9,4-5.3c0.2-0.5,0.4-0.9,0.4-1.1
				c0-0.3-0.1-0.6-0.3-1.2l-9.7-24.1H1350.7z"/>
			<path class="st3" d="M1374.4,764.9c0-3.3-0.1-6-0.2-8.5h4.3l0.2,4.5h0.1c1.9-3.2,5-5.1,9.3-5.1c6.3,0,11.1,5.3,11.1,13.3
				c0,9.4-5.7,14-11.9,14c-3.5,0-6.5-1.5-8-4.1h-0.1v14.2h-4.7V764.9z M1379.1,771.9c0,0.7,0.1,1.3,0.2,1.9c0.9,3.3,3.7,5.6,7.1,5.6
				c5,0,7.9-4.1,7.9-10.1c0-5.2-2.8-9.7-7.8-9.7c-3.2,0-6.3,2.3-7.2,5.9c-0.2,0.6-0.3,1.3-0.3,1.9V771.9z"/>
			<path class="st3" d="M1407.8,770.3c0.1,6.4,4.2,9.1,9,9.1c3.4,0,5.5-0.6,7.2-1.4l0.8,3.4c-1.7,0.8-4.5,1.6-8.7,1.6
				c-8,0-12.9-5.3-12.9-13.2c0-7.9,4.6-14.1,12.3-14.1c8.5,0,10.8,7.5,10.8,12.3c0,1-0.1,1.7-0.2,2.2H1407.8z M1421.7,766.9
				c0.1-3-1.2-7.7-6.6-7.7c-4.8,0-6.9,4.4-7.3,7.7H1421.7z"/>
			<path class="st3" d="M1432.2,764.6c0-3.1-0.1-5.7-0.2-8.2h4.2l0.2,5.1h0.2c1.2-3.5,4-5.7,7.2-5.7c0.5,0,0.9,0.1,1.3,0.2v4.5
				c-0.5-0.1-1-0.2-1.6-0.2c-3.3,0-5.7,2.5-6.4,6.1c-0.1,0.6-0.2,1.4-0.2,2.2v13.9h-4.7V764.6z"/>
			<path class="st3" d="M1453,756.4l5.1,14.7c0.9,2.4,1.6,4.5,2.1,6.7h0.2c0.6-2.2,1.3-4.3,2.2-6.7l5.1-14.7h5l-10.3,26.1h-4.5
				l-9.9-26.1H1453z"/>
			<path class="st3" d="M1482.4,749.1c0.1,1.6-1.1,2.9-3,2.9c-1.7,0-2.9-1.3-2.9-2.9c0-1.7,1.2-3,3-3
				C1481.3,746.1,1482.4,747.4,1482.4,749.1z M1477.1,782.5v-26.1h4.8v26.1H1477.1z"/>
			<path class="st3" d="M1489.1,777.7c1.4,0.9,3.9,1.9,6.3,1.9c3.5,0,5.1-1.7,5.1-3.9c0-2.3-1.3-3.5-4.9-4.8
				c-4.7-1.7-6.9-4.3-6.9-7.4c0-4.2,3.4-7.7,9-7.7c2.6,0,5,0.8,6.4,1.6l-1.2,3.5c-1-0.6-2.9-1.5-5.3-1.5c-2.8,0-4.4,1.6-4.4,3.6
				c0,2.2,1.6,3.1,5,4.4c4.5,1.7,6.9,4,6.9,7.9c0,4.6-3.6,7.8-9.8,7.8c-2.9,0-5.5-0.7-7.3-1.8L1489.1,777.7z"/>
			<path class="st3" d="M1534.8,769.3c0,9.7-6.7,13.9-13,13.9c-7.1,0-12.5-5.2-12.5-13.4c0-8.7,5.7-13.9,13-13.9
				C1529.7,755.8,1534.8,761.3,1534.8,769.3z M1514.1,769.5c0,5.7,3.3,10,7.9,10c4.5,0,7.9-4.3,7.9-10.2c0-4.4-2.2-10-7.8-10
				C1516.5,759.4,1514.1,764.6,1514.1,769.5z"/>
			<path class="st3" d="M1540.8,764.6c0-3.1-0.1-5.7-0.2-8.2h4.2l0.2,5.1h0.2c1.2-3.5,4-5.7,7.2-5.7c0.5,0,0.9,0.1,1.4,0.2v4.5
				c-0.5-0.1-1-0.2-1.6-0.2c-3.3,0-5.7,2.5-6.4,6.1c-0.1,0.6-0.2,1.4-0.2,2.2v13.9h-4.7V764.6z"/>
		</g>
	</g>
	<g>
		<path class="st3" d="M188.9,482.2l11.4,3.8v4.9L164,478.5v-5.7l36.4-12.4v5l-11.4,3.9v12.9H188.9z M185.2,470.2l-10.5,3.6
			c-2.4,0.8-4.5,1.4-6.6,1.9v0.1c2.2,0.5,4.4,1.1,6.6,1.8l10.5,3.6V470.2z"/>
		<path class="st3" d="M182.7,455.3c-3.3,0-6,0.1-8.5,0.2v-4.3l4.5-0.2v-0.1c-3.2-1.9-5.1-5-5.1-9.3c0-6.3,5.3-11.1,13.3-11.1
			c9.4,0,14,5.7,14,11.9c0,3.5-1.5,6.5-4.1,8v0.1H211v4.7L182.7,455.3L182.7,455.3z M189.7,450.6c0.7,0,1.4-0.1,1.9-0.2
			c3.3-0.9,5.6-3.7,5.6-7.1c0-5-4.1-7.9-10.1-7.9c-5.2,0-9.7,2.8-9.7,7.8c0,3.2,2.3,6.3,5.9,7.2c0.6,0.2,1.3,0.3,1.9,0.3
			L189.7,450.6L189.7,450.6z"/>
		<path class="st3" d="M182.7,424.6c-3.3,0-6,0.1-8.5,0.2v-4.3l4.5-0.2v-0.1c-3.2-1.9-5.1-5-5.1-9.3c0-6.3,5.3-11.1,13.3-11.1
			c9.4,0,14,5.7,14,11.9c0,3.5-1.5,6.5-4.1,8v0.1H211v4.7L182.7,424.6L182.7,424.6z M189.7,419.9c0.7,0,1.4-0.1,1.9-0.2
			c3.3-0.9,5.6-3.7,5.6-7.1c0-5-4.1-7.9-10.1-7.9c-5.2,0-9.7,2.8-9.7,7.8c0,3.2,2.3,6.3,5.9,7.2c0.6,0.2,1.3,0.3,1.9,0.3
			L189.7,419.9L189.7,419.9z"/>
		<path class="st3" d="M188.9,376.4l11.4,3.8v4.9L164,372.7V367l36.4-12.4v5l-11.4,3.9v12.9H188.9z M185.2,364.5l-10.5,3.6
			c-2.4,0.8-4.5,1.4-6.6,1.9v0.1c2.2,0.5,4.4,1.1,6.6,1.8l10.5,3.6V364.5z"/>
	</g>
	<g>
		<path class="st3" d="M342.5,481.7l11.4,3.8v4.9L317.5,478v-5.7l36.4-12.4v5l-11.4,3.9V481.7z M338.9,469.7l-10.5,3.6
			c-2.4,0.8-4.5,1.4-6.6,1.9v0.1c2.2,0.5,4.4,1.1,6.6,1.8l10.5,3.6V469.7z"/>
		<path class="st3" d="M336.4,454.8c-3.3,0-6,0.1-8.5,0.2v-4.3l4.5-0.2v-0.1c-3.2-1.9-5.1-5-5.1-9.3c0-6.3,5.3-11.1,13.3-11.1
			c9.4,0,14,5.7,14,11.9c0,3.5-1.5,6.5-4.1,8v0.1h14.2v4.7L336.4,454.8L336.4,454.8z M343.4,450.1c0.7,0,1.4-0.1,1.9-0.2
			c3.3-0.9,5.6-3.7,5.6-7.1c0-5-4.1-7.9-10.1-7.9c-5.2,0-9.7,2.8-9.7,7.8c0,3.2,2.3,6.3,5.9,7.2c0.6,0.2,1.3,0.3,1.9,0.3
			L343.4,450.1L343.4,450.1z"/>
		<path class="st3" d="M336.4,424.1c-3.3,0-6,0.1-8.5,0.2V420l4.5-0.2v-0.1c-3.2-1.9-5.1-5-5.1-9.3c0-6.3,5.3-11.1,13.3-11.1
			c9.4,0,14,5.7,14,11.9c0,3.5-1.5,6.5-4.1,8v0.1h14.2v4.7L336.4,424.1L336.4,424.1z M343.4,419.4c0.7,0,1.4-0.1,1.9-0.2
			c3.3-0.9,5.6-3.7,5.6-7.1c0-5-4.1-7.9-10.1-7.9c-5.2,0-9.7,2.8-9.7,7.8c0,3.2,2.3,6.3,5.9,7.2c0.6,0.2,1.3,0.3,1.9,0.3
			L343.4,419.4L343.4,419.4z"/>
		<path class="st3" d="M318.1,381.8c-0.4-2.1-0.8-5.3-0.8-8.6c0-4.7,0.8-7.7,2.6-10c1.4-1.9,3.6-3,6.4-3c3.5,0,6.6,2.3,8,6.2h0.1
			c0.9-3.5,3.7-7.5,9.1-7.5c3.1,0,5.5,1.2,7.3,3.1c2.3,2.5,3.4,6.6,3.4,12.6c0,3.2-0.2,5.7-0.4,7.3h-35.7V381.8z M333,377.1v-4.3
			c0-5-2.6-7.9-6.1-7.9c-4.3,0-5.9,3.2-5.9,8c0,2.2,0.2,3.4,0.3,4.2L333,377.1L333,377.1z M350.4,377.1c0.2-0.9,0.2-2.3,0.2-3.9
			c0-4.9-1.8-9.3-7.1-9.3c-5,0-7,4.3-7,9.4v3.9h13.9V377.1z"/>
	</g>
	<g>
		<path class="st3" d="M491,482.8l11.4,3.8v4.9L466,479v-5.7l36.4-12.4v5l-11.4,3.9V482.8z M487.3,470.8l-10.5,3.6
			c-2.4,0.8-4.5,1.4-6.6,1.9v0.1c2.2,0.5,4.4,1.1,6.6,1.8l10.5,3.6V470.8z"/>
		<path class="st3" d="M484.8,455.9c-3.3,0-6,0.1-8.5,0.2v-4.3l4.5-0.2v-0.1c-3.2-1.9-5.1-5-5.1-9.3c0-6.3,5.3-11.1,13.3-11.1
			c9.4,0,14,5.7,14,11.9c0,3.5-1.5,6.5-4.1,8v0.1h14.2v4.7L484.8,455.9L484.8,455.9z M491.8,451.2c0.7,0,1.4-0.1,1.9-0.2
			c3.3-0.9,5.6-3.7,5.6-7.1c0-5-4.1-7.9-10.1-7.9c-5.2,0-9.7,2.8-9.7,7.8c0,3.2,2.3,6.3,5.9,7.2c0.6,0.2,1.3,0.3,1.9,0.3
			L491.8,451.2L491.8,451.2z"/>
		<path class="st3" d="M484.8,425.2c-3.3,0-6,0.1-8.5,0.2v-4.2l4.5-0.2v-0.1c-3.2-1.9-5.1-5-5.1-9.3c0-6.3,5.3-11.1,13.3-11.1
			c9.4,0,14,5.7,14,11.9c0,3.5-1.5,6.5-4.1,8v0.1h14.2v4.7H484.8z M491.8,420.5c0.7,0,1.4-0.1,1.9-0.2c3.3-0.9,5.6-3.7,5.6-7.1
			c0-5-4.1-7.9-10.1-7.9c-5.2,0-9.7,2.8-9.7,7.8c0,3.2,2.3,6.3,5.9,7.2c0.6,0.2,1.3,0.3,1.9,0.3L491.8,420.5L491.8,420.5z"/>
		<path class="st3" d="M501.2,357.4c0.9,1.7,1.7,5.2,1.7,9.6c0,10.3-6.5,18-18.4,18c-11.4,0-19.1-7.7-19.1-19c0-4.5,1-7.4,1.6-8.6
			l3.8,1.1c-0.9,1.8-1.5,4.3-1.5,7.3c0,8.5,5.5,14.2,15,14.2c8.9,0,14.6-5.1,14.6-14c0-2.9-0.6-5.8-1.5-7.7L501.2,357.4z"/>
	</g>
	<g>
		<path class="st3" d="M641.7,485.1l11.4,3.8v4.9l-36.4-12.4v-5.7l36.4-12.4v5l-11.4,3.9V485.1z M638,473.2l-10.5,3.6
			c-2.4,0.8-4.5,1.4-6.6,1.9v0.1c2.2,0.5,4.4,1.1,6.6,1.8l10.5,3.6V473.2z"/>
		<path class="st3" d="M635.5,458.3c-3.3,0-6,0.1-8.5,0.2v-4.3l4.5-0.2v-0.1c-3.2-1.9-5.1-5-5.1-9.3c0-6.3,5.3-11.1,13.3-11.1
			c9.4,0,14,5.7,14,11.9c0,3.5-1.5,6.5-4.1,8v0.1h14.2v4.7h-28.3V458.3z M642.5,453.6c0.7,0,1.4-0.1,1.9-0.2
			c3.3-0.9,5.6-3.7,5.6-7.1c0-5-4.1-7.9-10.1-7.9c-5.2,0-9.7,2.8-9.7,7.8c0,3.2,2.3,6.3,5.9,7.2c0.6,0.2,1.3,0.3,1.9,0.3
			L642.5,453.6L642.5,453.6z"/>
		<path class="st3" d="M635.5,427.6c-3.3,0-6,0.1-8.5,0.2v-4.3l4.5-0.2v-0.1c-3.2-1.9-5.1-5-5.1-9.3c0-6.3,5.3-11.1,13.3-11.1
			c9.4,0,14,5.7,14,11.9c0,3.5-1.5,6.5-4.1,8v0.1h14.2v4.7L635.5,427.6L635.5,427.6z M642.5,422.9c0.7,0,1.4-0.1,1.9-0.2
			c3.3-0.9,5.6-3.7,5.6-7.1c0-5-4.1-7.9-10.1-7.9c-5.2,0-9.7,2.8-9.7,7.8c0,3.2,2.3,6.3,5.9,7.2c0.6,0.2,1.3,0.3,1.9,0.3
			L642.5,422.9L642.5,422.9z"/>
		<path class="st3" d="M617.2,385.2c-0.4-2.9-0.8-6.3-0.8-10c0-6.8,1.6-11.6,4.5-14.7c3-3.2,7.2-5.1,13.1-5.1
			c5.9,0,10.8,1.8,14.1,5.2c3.4,3.4,5.2,9,5.2,16.1c0,3.3-0.2,6.2-0.4,8.5H617.2z M649.4,380.5c0.2-1.2,0.3-2.9,0.3-4.8
			c0-10-5.6-15.5-15.4-15.5c-8.6-0.1-14,4.8-14,14.7c0,2.4,0.2,4.3,0.5,5.5L649.4,380.5L649.4,380.5z"/>
	</g>
	<g>
		<path class="st3" d="M791.5,481.6l11.4,3.8v4.9l-36.4-12.4v-5.7l36.4-12.4v5l-11.4,3.9V481.6z M787.9,469.6l-10.5,3.6
			c-2.4,0.8-4.5,1.4-6.6,1.9v0.1c2.2,0.5,4.4,1.1,6.6,1.8l10.5,3.6V469.6z"/>
		<path class="st3" d="M785.4,454.7c-3.3,0-6,0.1-8.5,0.2v-4.3l4.5-0.2v-0.1c-3.2-1.9-5.1-5-5.1-9.3c0-6.3,5.3-11.1,13.3-11.1
			c9.4,0,14,5.7,14,11.9c0,3.5-1.5,6.5-4.1,8v0.1h14.2v4.7L785.4,454.7L785.4,454.7z M792.3,450c0.7,0,1.4-0.1,1.9-0.2
			c3.3-0.9,5.6-3.7,5.6-7.1c0-5-4.1-7.9-10.1-7.9c-5.2,0-9.7,2.8-9.7,7.8c0,3.2,2.3,6.3,5.9,7.2c0.6,0.2,1.3,0.3,1.9,0.3L792.3,450
			L792.3,450z"/>
		<path class="st3" d="M785.4,424c-3.3,0-6,0.1-8.5,0.2v-4.3l4.5-0.2v-0.1c-3.2-1.9-5.1-5-5.1-9.3c0-6.3,5.3-11.1,13.3-11.1
			c9.4,0,14,5.7,14,11.9c0,3.5-1.5,6.5-4.1,8v0.1h14.2v4.7L785.4,424L785.4,424z M792.3,419.3c0.7,0,1.4-0.1,1.9-0.2
			c3.3-0.9,5.6-3.7,5.6-7.1c0-5-4.1-7.9-10.1-7.9c-5.2,0-9.7,2.8-9.7,7.8c0,3.2,2.3,6.3,5.9,7.2c0.6,0.2,1.3,0.3,1.9,0.3
			L792.3,419.3L792.3,419.3z"/>
		<path class="st3" d="M785.9,362.8v14.1H799v-15.7h3.9v20.5h-36.4V362h3.9v15H782v-14.1L785.9,362.8L785.9,362.8z"/>
	</g>
	<rect x="1061" y="234.2" class="st7" width="136.2" height="241"/>
	<rect x="1212.2" y="234.2" class="st7" width="136.2" height="241"/>
	<rect x="1061" y="234.2" class="st7" width="136.2" height="241"/>
	<rect x="1061" y="234.2" class="st7" width="136.2" height="241"/>
	<rect x="1061" y="234.2" class="st7" width="136.2" height="241"/>
	<rect x="1061" y="234.2" class="st7" width="136.2" height="241"/>
	<rect x="1061" y="234.2" class="st7" width="136.2" height="241"/>
	<rect x="1061" y="234.2" class="st7" width="136.2" height="241"/>
	<rect x="1061" y="234.2" class="st7" width="136.2" height="241"/>
	<rect x="1061" y="234.2" class="st7" width="136.2" height="241"/>
	<rect x="1363.4" y="234.2" class="st7" width="136.2" height="241"/>
	<rect x="1514.5" y="234.2" class="st7" width="136.2" height="241"/>
	<rect x="1664.8" y="234.2" class="st7" width="136.2" height="241"/>
	<rect x="1363.4" y="234.2" class="st7" width="136.2" height="241"/>
	<rect x="1363.4" y="234.2" class="st7" width="136.2" height="241"/>
	<rect x="1363.4" y="234.2" class="st7" width="136.2" height="241"/>
	<rect x="1363.4" y="234.2" class="st7" width="136.2" height="241"/>
	<rect x="1363.4" y="234.2" class="st7" width="136.2" height="241"/>
	<rect x="1363.4" y="234.2" class="st7" width="136.2" height="241"/>
	<rect x="1363.4" y="234.2" class="st7" width="136.2" height="241"/>
	<rect x="1363.4" y="234.2" class="st7" width="136.2" height="241"/>
	<g>
		<path class="st3" d="M1130.9,443.2l11.4,3.8v4.9l-36.4-12.4v-5.7l36.4-12.4v5l-11.4,3.9V443.2z M1127.2,431.2l-10.5,3.6
			c-2.4,0.8-4.5,1.4-6.6,1.9v0.1c2.2,0.5,4.4,1.1,6.6,1.8l10.5,3.6V431.2z"/>
		<path class="st3" d="M1124.7,416.3c-3.3,0-6,0.1-8.5,0.2v-4.3l4.5-0.2v-0.1c-3.2-1.9-5.1-5-5.1-9.3c0-6.3,5.3-11.1,13.3-11.1
			c9.4,0,14,5.7,14,11.9c0,3.5-1.5,6.5-4.1,8v0.1h14.2v4.7L1124.7,416.3L1124.7,416.3z M1131.7,411.6c0.7,0,1.4-0.1,1.9-0.2
			c3.3-0.9,5.6-3.7,5.6-7.1c0-5-4.1-7.9-10.1-7.9c-5.2,0-9.7,2.8-9.7,7.8c0,3.2,2.3,6.3,5.9,7.2c0.6,0.2,1.3,0.3,1.9,0.3
			L1131.7,411.6L1131.7,411.6z"/>
		<path class="st3" d="M1124.7,385.6c-3.3,0-6,0.1-8.5,0.2v-4.3l4.5-0.2v-0.1c-3.2-1.9-5.1-5-5.1-9.3c0-6.3,5.3-11.1,13.3-11.1
			c9.4,0,14,5.7,14,11.9c0,3.5-1.5,6.5-4.1,8v0.1h14.2v4.7L1124.7,385.6L1124.7,385.6z M1131.7,380.9c0.7,0,1.4-0.1,1.9-0.2
			c3.3-0.9,5.6-3.7,5.6-7.1c0-5-4.1-7.9-10.1-7.9c-5.2,0-9.7,2.8-9.7,7.8c0,3.2,2.3,6.3,5.9,7.2c0.6,0.2,1.3,0.3,1.9,0.3
			L1131.7,380.9L1131.7,380.9z"/>
		<path class="st3" d="M1130.9,337.4l11.4,3.8v4.9l-36.4-12.4V328l36.4-12.4v5l-11.4,3.9V337.4z M1127.2,325.5l-10.5,3.6
			c-2.4,0.8-4.5,1.4-6.6,1.9v0.1c2.2,0.5,4.4,1.1,6.6,1.8l10.5,3.6V325.5z"/>
	</g>
	<g>
		<path class="st3" d="M1284.5,442.7l11.4,3.8v4.9l-36.4-12.4v-5.7l36.4-12.4v5l-11.4,3.9V442.7z M1280.9,430.7l-10.5,3.6
			c-2.4,0.8-4.5,1.4-6.6,1.9v0.1c2.2,0.5,4.4,1.1,6.6,1.8l10.5,3.6V430.7z"/>
		<path class="st3" d="M1278.4,415.8c-3.3,0-6,0.1-8.5,0.2v-4.3l4.5-0.2v-0.1c-3.2-1.9-5.1-5-5.1-9.3c0-6.3,5.3-11.1,13.3-11.1
			c9.4,0,14,5.7,14,11.9c0,3.5-1.5,6.5-4.1,8v0.1h14.2v4.7L1278.4,415.8L1278.4,415.8z M1285.4,411.1c0.7,0,1.4-0.1,1.9-0.2
			c3.3-0.9,5.6-3.7,5.6-7.1c0-5-4.1-7.9-10.1-7.9c-5.2,0-9.7,2.8-9.7,7.8c0,3.2,2.3,6.3,5.9,7.2c0.6,0.2,1.3,0.3,1.9,0.3
			L1285.4,411.1L1285.4,411.1z"/>
		<path class="st3" d="M1278.4,385.1c-3.3,0-6,0.1-8.5,0.2V381l4.5-0.2v-0.1c-3.2-1.9-5.1-5-5.1-9.3c0-6.3,5.3-11.1,13.3-11.1
			c9.4,0,14,5.7,14,11.9c0,3.5-1.5,6.5-4.1,8v0.1h14.2v4.7L1278.4,385.1L1278.4,385.1z M1285.4,380.4c0.7,0,1.4-0.1,1.9-0.2
			c3.3-0.9,5.6-3.7,5.6-7.1c0-5-4.1-7.9-10.1-7.9c-5.2,0-9.7,2.8-9.7,7.8c0,3.2,2.3,6.3,5.9,7.2c0.6,0.2,1.3,0.3,1.9,0.3
			L1285.4,380.4L1285.4,380.4z"/>
		<path class="st3" d="M1260.1,342.8c-0.4-2.1-0.8-5.3-0.8-8.6c0-4.7,0.8-7.7,2.6-10c1.4-1.9,3.6-3,6.4-3c3.5,0,6.6,2.3,8,6.2h0.1
			c0.9-3.5,3.7-7.5,9.1-7.5c3.1,0,5.5,1.2,7.3,3.1c2.3,2.5,3.4,6.6,3.4,12.6c0,3.2-0.2,5.7-0.4,7.3h-35.7V342.8z M1275,338.1v-4.3
			c0-5-2.6-7.9-6.1-7.9c-4.3,0-5.9,3.2-5.9,8c0,2.2,0.2,3.4,0.3,4.2L1275,338.1L1275,338.1z M1292.4,338.1c0.2-0.9,0.2-2.3,0.2-3.9
			c0-4.9-1.8-9.3-7.1-9.3c-5,0-7,4.3-7,9.4v3.9h13.9V338.1z"/>
	</g>
	<g>
		<path class="st3" d="M1433,443.8l11.4,3.8v4.9l-36.4-12.4v-5.7l36.4-12.4v5l-11.4,3.9V443.8z M1429.3,431.8l-10.5,3.6
			c-2.4,0.8-4.5,1.4-6.6,1.9v0.1c2.2,0.5,4.4,1.1,6.6,1.8l10.5,3.6V431.8z"/>
		<path class="st3" d="M1426.8,416.9c-3.3,0-6,0.1-8.5,0.2v-4.3l4.5-0.2v-0.1c-3.2-1.9-5.1-5-5.1-9.3c0-6.3,5.3-11.1,13.3-11.1
			c9.4,0,14,5.7,14,11.9c0,3.5-1.5,6.5-4.1,8v0.1h14.2v4.7L1426.8,416.9L1426.8,416.9z M1433.8,412.2c0.7,0,1.4-0.1,1.9-0.2
			c3.3-0.9,5.6-3.7,5.6-7.1c0-5-4.1-7.9-10.1-7.9c-5.2,0-9.7,2.8-9.7,7.8c0,3.2,2.3,6.3,5.9,7.2c0.6,0.2,1.3,0.3,1.9,0.3
			L1433.8,412.2L1433.8,412.2z"/>
		<path class="st3" d="M1426.8,386.2c-3.3,0-6,0.1-8.5,0.2v-4.2l4.5-0.2v-0.1c-3.2-1.9-5.1-5-5.1-9.3c0-6.3,5.3-11.1,13.3-11.1
			c9.4,0,14,5.7,14,11.9c0,3.5-1.5,6.5-4.1,8v0.1h14.2v4.7H1426.8z M1433.8,381.5c0.7,0,1.4-0.1,1.9-0.2c3.3-0.9,5.6-3.7,5.6-7.1
			c0-5-4.1-7.9-10.1-7.9c-5.2,0-9.7,2.8-9.7,7.8c0,3.2,2.3,6.3,5.9,7.2c0.6,0.2,1.3,0.3,1.9,0.3L1433.8,381.5L1433.8,381.5z"/>
		<path class="st3" d="M1443.2,318.4c0.9,1.7,1.7,5.2,1.7,9.6c0,10.3-6.5,18-18.4,18c-11.4,0-19.1-7.7-19.1-19c0-4.5,1-7.4,1.6-8.6
			l3.8,1.1c-0.9,1.8-1.5,4.3-1.5,7.3c0,8.5,5.5,14.2,15,14.2c8.9,0,14.6-5.1,14.6-14c0-2.9-0.6-5.8-1.5-7.7L1443.2,318.4z"/>
	</g>
	<g>
		<path class="st3" d="M1583.7,446.1l11.4,3.8v4.9l-36.4-12.4v-5.7l36.4-12.4v5l-11.4,3.9V446.1z M1580,434.2l-10.5,3.6
			c-2.4,0.8-4.5,1.4-6.6,1.9v0.1c2.2,0.5,4.4,1.1,6.6,1.8l10.5,3.6V434.2z"/>
		<path class="st3" d="M1577.5,419.3c-3.3,0-6,0.1-8.5,0.2v-4.3l4.5-0.2v-0.1c-3.2-1.9-5.1-5-5.1-9.3c0-6.3,5.3-11.1,13.3-11.1
			c9.4,0,14,5.7,14,11.9c0,3.5-1.5,6.5-4.1,8v0.1h14.2v4.7h-28.3V419.3z M1584.5,414.6c0.7,0,1.4-0.1,1.9-0.2
			c3.3-0.9,5.6-3.7,5.6-7.1c0-5-4.1-7.9-10.1-7.9c-5.2,0-9.7,2.8-9.7,7.8c0,3.2,2.3,6.3,5.9,7.2c0.6,0.2,1.3,0.3,1.9,0.3
			L1584.5,414.6L1584.5,414.6z"/>
		<path class="st3" d="M1577.5,388.6c-3.3,0-6,0.1-8.5,0.2v-4.3l4.5-0.2v-0.1c-3.2-1.9-5.1-5-5.1-9.3c0-6.3,5.3-11.1,13.3-11.1
			c9.4,0,14,5.7,14,11.9c0,3.5-1.5,6.5-4.1,8v0.1h14.2v4.7L1577.5,388.6L1577.5,388.6z M1584.5,383.9c0.7,0,1.4-0.1,1.9-0.2
			c3.3-0.9,5.6-3.7,5.6-7.1c0-5-4.1-7.9-10.1-7.9c-5.2,0-9.7,2.8-9.7,7.8c0,3.2,2.3,6.3,5.9,7.2c0.6,0.2,1.3,0.3,1.9,0.3
			L1584.5,383.9L1584.5,383.9z"/>
		<path class="st3" d="M1559.2,346.2c-0.4-2.9-0.8-6.3-0.8-10c0-6.8,1.6-11.6,4.5-14.7c3-3.2,7.2-5.1,13.1-5.1s10.8,1.8,14.1,5.2
			c3.4,3.4,5.2,9,5.2,16.1c0,3.3-0.2,6.2-0.4,8.5H1559.2z M1591.4,341.5c0.2-1.2,0.3-2.9,0.3-4.8c0-10-5.6-15.5-15.4-15.5
			c-8.6-0.1-14,4.8-14,14.7c0,2.4,0.2,4.3,0.5,5.5L1591.4,341.5L1591.4,341.5z"/>
	</g>
	<g>
		<path class="st3" d="M1733.5,442.6l11.4,3.8v4.9l-36.4-12.4v-5.7l36.4-12.4v5l-11.4,3.9V442.6z M1729.9,430.6l-10.5,3.6
			c-2.4,0.8-4.5,1.4-6.6,1.9v0.1c2.2,0.5,4.4,1.1,6.6,1.8l10.5,3.6V430.6z"/>
		<path class="st3" d="M1727.4,415.7c-3.3,0-6,0.1-8.5,0.2v-4.3l4.5-0.2v-0.1c-3.2-1.9-5.1-5-5.1-9.3c0-6.3,5.3-11.1,13.3-11.1
			c9.4,0,14,5.7,14,11.9c0,3.5-1.5,6.5-4.1,8v0.1h14.2v4.7L1727.4,415.7L1727.4,415.7z M1734.3,411c0.7,0,1.4-0.1,1.9-0.2
			c3.3-0.9,5.6-3.7,5.6-7.1c0-5-4.1-7.9-10.1-7.9c-5.2,0-9.7,2.8-9.7,7.8c0,3.2,2.3,6.3,5.9,7.2c0.6,0.2,1.3,0.3,1.9,0.3L1734.3,411
			L1734.3,411z"/>
		<path class="st3" d="M1727.4,385c-3.3,0-6,0.1-8.5,0.2v-4.3l4.5-0.2v-0.1c-3.2-1.9-5.1-5-5.1-9.3c0-6.3,5.3-11.1,13.3-11.1
			c9.4,0,14,5.7,14,11.9c0,3.5-1.5,6.5-4.1,8v0.1h14.2v4.7L1727.4,385L1727.4,385z M1734.3,380.3c0.7,0,1.4-0.1,1.9-0.2
			c3.3-0.9,5.6-3.7,5.6-7.1c0-5-4.1-7.9-10.1-7.9c-5.2,0-9.7,2.8-9.7,7.8c0,3.2,2.3,6.3,5.9,7.2c0.6,0.2,1.3,0.3,1.9,0.3
			L1734.3,380.3L1734.3,380.3z"/>
		<path class="st3" d="M1727.9,323.8v14.1h13.1v-15.7h3.9v20.5h-36.4V323h3.9v15h11.5v-14.1L1727.9,323.8L1727.9,323.8z"/>
	</g>
	<g>
		<g>
			<path class="st5" d="M1117.3,611.5c0.7,1.8,1.7,5.4,1.7,9.6c0,4.7-1.2,8.7-4.1,11.7c-2.6,2.7-6.8,4.4-11.7,4.4
				c-9.3,0-16.2-6.5-16.2-17c0-3.6,0.8-6.5,1.4-7.8l3.3,1c-0.7,1.7-1.3,3.8-1.3,6.9c0,7.6,4.7,12.6,12.6,12.6
				c8,0,12.7-4.8,12.7-12.1c0-2.7-0.4-4.5-0.8-5.4h-9.3v6.4h-3.3v-10.3L1117.3,611.5L1117.3,611.5z"/>
			<path class="st5" d="M1112.6,586.6c2.3,0,4.4,0,6.1-0.2v3.6l-3.7,0.2v0.1c1.8,1.1,4.2,3.4,4.2,7.4c0,3.5-2,7.8-9.9,7.8h-13.2
				v-4.1h12.5c4.3,0,7.2-1.3,7.2-5c0-2.7-1.9-4.7-3.7-5.4c-0.6-0.2-1.3-0.4-2.1-0.4h-13.8v-4.1h16.4V586.6z"/>
			<path class="st5" d="M1108.2,577.5c5.5-0.1,7.8-3.6,7.8-7.7c0-2.9-0.5-4.7-1.2-6.2l2.9-0.7c0.7,1.4,1.4,3.9,1.4,7.5
				c0,6.9-4.6,11.1-11.3,11.1c-6.8,0-12.1-4-12.1-10.6c0-7.3,6.5-9.3,10.6-9.3c0.8,0,1.5,0.1,1.9,0.1L1108.2,577.5L1108.2,577.5z
				 M1105.3,565.5c-2.6,0-6.7,1.1-6.7,5.7c0,4.1,3.8,6,6.7,6.3V565.5z"/>
			<path class="st5" d="M1114.5,557.1c0.8-1.2,1.6-3.3,1.6-5.4c0-3-1.5-4.4-3.3-4.4c-2,0-3,1.2-4.1,4.2c-1.4,4-3.7,6-6.4,6
				c-3.6,0-6.6-2.9-6.6-7.8c0-2.3,0.7-4.3,1.4-5.5l3,1c-0.6,0.9-1.3,2.5-1.3,4.6c0,2.4,1.4,3.8,3.1,3.8c1.9,0,2.7-1.3,3.8-4.3
				c1.5-3.9,3.4-5.9,6.8-5.9c4,0,6.7,3.1,6.7,8.4c0,2.5-0.6,4.7-1.5,6.3L1114.5,557.1z"/>
			<path class="st5" d="M1089.7,533.2h6.5v-5.9h3.1v5.9h12.1c2.8,0,4.4-0.8,4.4-3.1c0-1.1-0.1-1.9-0.3-2.4l3.1-0.2
				c0.3,0.8,0.6,2,0.6,3.6c0,1.9-0.6,3.4-1.7,4.4c-1.2,1.2-3.2,1.6-5.9,1.6h-12.3v3.5h-3.1v-3.4h-5.4L1089.7,533.2z"/>
			<path class="st5" d="M1157.8,579.6c10.8,0,16.5,6.6,16.5,14.6c0,8.3-6.4,14.1-15.9,14.1c-10,0-16.5-6.2-16.5-14.6
				C1142,585.2,1148.5,579.6,1157.8,579.6z M1158.3,604c6.7,0,12.7-3.6,12.7-10s-5.9-10-13-10c-6.2,0-12.7,3.3-12.7,10
				C1145.3,600.6,1151.4,604,1158.3,604z"/>
			<path class="st5" d="M1168.9,574.9c1.1-1.8,2-4.5,2-7.3c0-4.1-2.2-6.6-5.3-6.6c-2.9,0-4.6,1.7-6.2,5.9c-1.8,5.1-4.5,8.3-8.9,8.3
				c-4.9,0-8.5-4-8.5-10.1c0-3.2,0.7-5.5,1.5-6.9l3.3,1.1c-0.6,1-1.5,3.1-1.5,6c0,4.3,2.6,5.9,4.7,5.9c2.9,0,4.4-1.9,6-6.2
				c2-5.3,4.6-8,9.2-8c4.8,0,9,3.6,9,11c0,3-0.9,6.3-2,8L1168.9,574.9z"/>
		</g>
	</g>
	<g>
		<g>
			<path class="st5" d="M1265.3,611.5c0.7,1.8,1.7,5.4,1.7,9.6c0,4.7-1.2,8.7-4.1,11.7c-2.6,2.7-6.8,4.4-11.7,4.4
				c-9.3,0-16.2-6.5-16.2-17c0-3.6,0.8-6.5,1.4-7.8l3.3,1c-0.7,1.7-1.3,3.8-1.3,6.9c0,7.6,4.7,12.6,12.6,12.6
				c8,0,12.7-4.8,12.7-12.1c0-2.7-0.4-4.5-0.8-5.4h-9.3v6.4h-3.3v-10.3L1265.3,611.5L1265.3,611.5z"/>
			<path class="st5" d="M1260.6,586.6c2.3,0,4.4,0,6.1-0.2v3.6l-3.7,0.2v0.1c1.8,1.1,4.2,3.4,4.2,7.4c0,3.5-2,7.8-9.9,7.8h-13.2
				v-4.1h12.5c4.3,0,7.2-1.3,7.2-5c0-2.7-1.9-4.7-3.7-5.4c-0.6-0.2-1.3-0.4-2.1-0.4h-13.8v-4.1h16.4V586.6z"/>
			<path class="st5" d="M1256.2,577.5c5.5-0.1,7.8-3.6,7.8-7.7c0-2.9-0.5-4.7-1.2-6.2l2.9-0.7c0.7,1.4,1.4,3.9,1.4,7.5
				c0,6.9-4.6,11.1-11.3,11.1c-6.8,0-12.1-4-12.1-10.6c0-7.3,6.5-9.3,10.6-9.3c0.8,0,1.5,0.1,1.9,0.1L1256.2,577.5L1256.2,577.5z
				 M1253.3,565.5c-2.6,0-6.7,1.1-6.7,5.7c0,4.1,3.8,6,6.7,6.3V565.5z"/>
			<path class="st5" d="M1262.5,557.1c0.8-1.2,1.6-3.3,1.6-5.4c0-3-1.5-4.4-3.3-4.4c-2,0-3,1.2-4.1,4.2c-1.4,4-3.7,6-6.4,6
				c-3.6,0-6.6-2.9-6.6-7.8c0-2.3,0.7-4.3,1.4-5.5l3,1c-0.6,0.9-1.3,2.5-1.3,4.6c0,2.4,1.4,3.8,3.1,3.8c1.9,0,2.7-1.3,3.8-4.3
				c1.5-3.9,3.4-5.9,6.8-5.9c4,0,6.7,3.1,6.7,8.4c0,2.5-0.6,4.7-1.5,6.3L1262.5,557.1z"/>
			<path class="st5" d="M1237.7,533.2h6.5v-5.9h3.1v5.9h12.1c2.8,0,4.4-0.8,4.4-3.1c0-1.1-0.1-1.9-0.3-2.4l3.1-0.2
				c0.3,0.8,0.6,2,0.6,3.6c0,1.9-0.6,3.4-1.7,4.4c-1.2,1.2-3.2,1.6-5.9,1.6h-12.3v3.5h-3.1v-3.4h-5.4L1237.7,533.2z"/>
			<path class="st5" d="M1305.8,579.6c10.8,0,16.5,6.6,16.5,14.6c0,8.3-6.4,14.1-15.9,14.1c-10,0-16.5-6.2-16.5-14.6
				C1290,585.2,1296.5,579.6,1305.8,579.6z M1306.3,604c6.7,0,12.7-3.6,12.7-10s-5.9-10-13-10c-6.2,0-12.7,3.3-12.7,10
				C1293.3,600.6,1299.4,604,1306.3,604z"/>
			<path class="st5" d="M1316.9,574.9c1.1-1.8,2-4.5,2-7.3c0-4.1-2.2-6.6-5.3-6.6c-2.9,0-4.6,1.7-6.2,5.9c-1.8,5.1-4.5,8.3-8.9,8.3
				c-4.9,0-8.5-4-8.5-10.1c0-3.2,0.7-5.5,1.5-6.9l3.3,1.1c-0.6,1-1.5,3.1-1.5,6c0,4.3,2.6,5.9,4.7,5.9c2.9,0,4.4-1.9,6-6.2
				c2-5.3,4.6-8,9.2-8c4.8,0,9,3.6,9,11c0,3-0.9,6.3-2,8L1316.9,574.9z"/>
		</g>
	</g>
	<g>
		<g>
			<path class="st5" d="M1417.3,611.5c0.7,1.8,1.7,5.4,1.7,9.6c0,4.7-1.2,8.7-4.1,11.7c-2.6,2.7-6.8,4.4-11.7,4.4
				c-9.3,0-16.2-6.5-16.2-17c0-3.6,0.8-6.5,1.4-7.8l3.3,1c-0.7,1.7-1.3,3.8-1.3,6.9c0,7.6,4.7,12.6,12.6,12.6
				c8,0,12.7-4.8,12.7-12.1c0-2.7-0.4-4.5-0.8-5.4h-9.3v6.4h-3.3v-10.3L1417.3,611.5L1417.3,611.5z"/>
			<path class="st5" d="M1412.6,586.6c2.3,0,4.4,0,6.1-0.2v3.6l-3.7,0.2v0.1c1.8,1.1,4.2,3.4,4.2,7.4c0,3.5-2,7.8-9.9,7.8h-13.2
				v-4.1h12.5c4.3,0,7.2-1.3,7.2-5c0-2.7-1.9-4.7-3.7-5.4c-0.6-0.2-1.3-0.4-2.1-0.4h-13.8v-4.1h16.4V586.6z"/>
			<path class="st5" d="M1408.2,577.5c5.5-0.1,7.8-3.6,7.8-7.7c0-2.9-0.5-4.7-1.2-6.2l2.9-0.7c0.7,1.4,1.4,3.9,1.4,7.5
				c0,6.9-4.6,11.1-11.3,11.1c-6.8,0-12.1-4-12.1-10.6c0-7.3,6.5-9.3,10.6-9.3c0.8,0,1.5,0.1,1.9,0.1L1408.2,577.5L1408.2,577.5z
				 M1405.3,565.5c-2.6,0-6.7,1.1-6.7,5.7c0,4.1,3.8,6,6.7,6.3V565.5z"/>
			<path class="st5" d="M1414.5,557.1c0.8-1.2,1.6-3.3,1.6-5.4c0-3-1.5-4.4-3.3-4.4c-2,0-3,1.2-4.1,4.2c-1.4,4-3.7,6-6.4,6
				c-3.6,0-6.6-2.9-6.6-7.8c0-2.3,0.7-4.3,1.4-5.5l3,1c-0.6,0.9-1.3,2.5-1.3,4.6c0,2.4,1.4,3.8,3.1,3.8c1.9,0,2.7-1.3,3.8-4.3
				c1.5-3.9,3.4-5.9,6.8-5.9c4,0,6.7,3.1,6.7,8.4c0,2.5-0.6,4.7-1.5,6.3L1414.5,557.1z"/>
			<path class="st5" d="M1389.7,533.2h6.5v-5.9h3.1v5.9h12.1c2.8,0,4.4-0.8,4.4-3.1c0-1.1-0.1-1.9-0.3-2.4l3.1-0.2
				c0.3,0.8,0.6,2,0.6,3.6c0,1.9-0.6,3.4-1.7,4.4c-1.2,1.2-3.2,1.6-5.9,1.6h-12.3v3.5h-3.1v-3.4h-5.4L1389.7,533.2z"/>
			<path class="st5" d="M1457.8,579.6c10.8,0,16.5,6.6,16.5,14.6c0,8.3-6.4,14.1-15.9,14.1c-10,0-16.5-6.2-16.5-14.6
				C1442,585.2,1448.5,579.6,1457.8,579.6z M1458.3,604c6.7,0,12.7-3.6,12.7-10s-5.9-10-13-10c-6.2,0-12.7,3.3-12.7,10
				C1445.3,600.6,1451.4,604,1458.3,604z"/>
			<path class="st5" d="M1468.9,574.9c1.1-1.8,2-4.5,2-7.3c0-4.1-2.2-6.6-5.3-6.6c-2.9,0-4.6,1.7-6.2,5.9c-1.8,5.1-4.5,8.3-8.9,8.3
				c-4.9,0-8.5-4-8.5-10.1c0-3.2,0.7-5.5,1.5-6.9l3.3,1.1c-0.6,1-1.5,3.1-1.5,6c0,4.3,2.6,5.9,4.7,5.9c2.9,0,4.4-1.9,6-6.2
				c2-5.3,4.6-8,9.2-8c4.8,0,9,3.6,9,11c0,3-0.9,6.3-2,8L1468.9,574.9z"/>
		</g>
	</g>
	<g>
		<g>
			<path class="st5" d="M1568.3,611.5c0.7,1.8,1.7,5.4,1.7,9.6c0,4.7-1.2,8.7-4.1,11.7c-2.6,2.7-6.8,4.4-11.7,4.4
				c-9.3,0-16.2-6.5-16.2-17c0-3.6,0.8-6.5,1.4-7.8l3.3,1c-0.7,1.7-1.3,3.8-1.3,6.9c0,7.6,4.7,12.6,12.6,12.6
				c8,0,12.7-4.8,12.7-12.1c0-2.7-0.4-4.5-0.8-5.4h-9.3v6.4h-3.3v-10.3L1568.3,611.5L1568.3,611.5z"/>
			<path class="st5" d="M1563.6,586.6c2.3,0,4.4,0,6.1-0.2v3.6l-3.7,0.2v0.1c1.8,1.1,4.2,3.4,4.2,7.4c0,3.5-2,7.8-9.9,7.8h-13.2
				v-4.1h12.5c4.3,0,7.2-1.3,7.2-5c0-2.7-1.9-4.7-3.7-5.4c-0.6-0.2-1.3-0.4-2.1-0.4h-13.8v-4.1h16.4V586.6z"/>
			<path class="st5" d="M1559.2,577.5c5.5-0.1,7.8-3.6,7.8-7.7c0-2.9-0.5-4.7-1.2-6.2l2.9-0.7c0.7,1.4,1.4,3.9,1.4,7.5
				c0,6.9-4.6,11.1-11.3,11.1c-6.8,0-12.1-4-12.1-10.6c0-7.3,6.5-9.3,10.6-9.3c0.8,0,1.5,0.1,1.9,0.1L1559.2,577.5L1559.2,577.5z
				 M1556.3,565.5c-2.6,0-6.7,1.1-6.7,5.7c0,4.1,3.8,6,6.7,6.3V565.5z"/>
			<path class="st5" d="M1565.5,557.1c0.8-1.2,1.6-3.3,1.6-5.4c0-3-1.5-4.4-3.3-4.4c-2,0-3,1.2-4.1,4.2c-1.4,4-3.7,6-6.4,6
				c-3.6,0-6.6-2.9-6.6-7.8c0-2.3,0.7-4.3,1.4-5.5l3,1c-0.6,0.9-1.3,2.5-1.3,4.6c0,2.4,1.4,3.8,3.1,3.8c1.9,0,2.7-1.3,3.8-4.3
				c1.5-3.9,3.4-5.9,6.8-5.9c4,0,6.7,3.1,6.7,8.4c0,2.5-0.6,4.7-1.5,6.3L1565.5,557.1z"/>
			<path class="st5" d="M1540.7,533.2h6.5v-5.9h3.1v5.9h12.1c2.8,0,4.4-0.8,4.4-3.1c0-1.1-0.1-1.9-0.3-2.4l3.1-0.2
				c0.3,0.8,0.6,2,0.6,3.6c0,1.9-0.6,3.4-1.7,4.4c-1.2,1.2-3.2,1.6-5.9,1.6h-12.3v3.5h-3.1v-3.4h-5.4L1540.7,533.2z"/>
			<path class="st5" d="M1608.8,579.6c10.8,0,16.5,6.6,16.5,14.6c0,8.3-6.4,14.1-15.9,14.1c-10,0-16.5-6.2-16.5-14.6
				C1593,585.2,1599.5,579.6,1608.8,579.6z M1609.3,604c6.7,0,12.7-3.6,12.7-10s-5.9-10-13-10c-6.2,0-12.7,3.3-12.7,10
				C1596.3,600.6,1602.4,604,1609.3,604z"/>
			<path class="st5" d="M1619.9,574.9c1.1-1.8,2-4.5,2-7.3c0-4.1-2.2-6.6-5.3-6.6c-2.9,0-4.6,1.7-6.2,5.9c-1.8,5.1-4.5,8.3-8.9,8.3
				c-4.9,0-8.5-4-8.5-10.1c0-3.2,0.7-5.5,1.5-6.9l3.3,1.1c-0.6,1-1.5,3.1-1.5,6c0,4.3,2.6,5.9,4.7,5.9c2.9,0,4.4-1.9,6-6.2
				c2-5.3,4.6-8,9.2-8c4.8,0,9,3.6,9,11c0,3-0.9,6.3-2,8L1619.9,574.9z"/>
		</g>
	</g>
	<g>
		<g>
			<path class="st5" d="M1718.3,611.5c0.7,1.8,1.7,5.4,1.7,9.6c0,4.7-1.2,8.7-4.1,11.7c-2.6,2.7-6.8,4.4-11.7,4.4
				c-9.3,0-16.2-6.5-16.2-17c0-3.6,0.8-6.5,1.4-7.8l3.3,1c-0.7,1.7-1.3,3.8-1.3,6.9c0,7.6,4.7,12.6,12.6,12.6
				c8,0,12.7-4.8,12.7-12.1c0-2.7-0.4-4.5-0.8-5.4h-9.3v6.4h-3.3v-10.3L1718.3,611.5L1718.3,611.5z"/>
			<path class="st5" d="M1713.6,586.6c2.3,0,4.4,0,6.1-0.2v3.6l-3.7,0.2v0.1c1.8,1.1,4.2,3.4,4.2,7.4c0,3.5-2,7.8-9.9,7.8h-13.2
				v-4.1h12.5c4.3,0,7.2-1.3,7.2-5c0-2.7-1.9-4.7-3.7-5.4c-0.6-0.2-1.3-0.4-2.1-0.4h-13.8v-4.1h16.4V586.6z"/>
			<path class="st5" d="M1709.2,577.5c5.5-0.1,7.8-3.6,7.8-7.7c0-2.9-0.5-4.7-1.2-6.2l2.9-0.7c0.7,1.4,1.4,3.9,1.4,7.5
				c0,6.9-4.6,11.1-11.3,11.1c-6.8,0-12.1-4-12.1-10.6c0-7.3,6.5-9.3,10.6-9.3c0.8,0,1.5,0.1,1.9,0.1L1709.2,577.5L1709.2,577.5z
				 M1706.3,565.5c-2.6,0-6.7,1.1-6.7,5.7c0,4.1,3.8,6,6.7,6.3V565.5z"/>
			<path class="st5" d="M1715.5,557.1c0.8-1.2,1.6-3.3,1.6-5.4c0-3-1.5-4.4-3.3-4.4c-2,0-3,1.2-4.1,4.2c-1.4,4-3.7,6-6.4,6
				c-3.6,0-6.6-2.9-6.6-7.8c0-2.3,0.7-4.3,1.4-5.5l3,1c-0.6,0.9-1.3,2.5-1.3,4.6c0,2.4,1.4,3.8,3.1,3.8c1.9,0,2.7-1.3,3.8-4.3
				c1.5-3.9,3.4-5.9,6.8-5.9c4,0,6.7,3.1,6.7,8.4c0,2.5-0.6,4.7-1.5,6.3L1715.5,557.1z"/>
			<path class="st5" d="M1690.7,533.2h6.5v-5.9h3.1v5.9h12.1c2.8,0,4.4-0.8,4.4-3.1c0-1.1-0.1-1.9-0.3-2.4l3.1-0.2
				c0.3,0.8,0.6,2,0.6,3.6c0,1.9-0.6,3.4-1.7,4.4c-1.2,1.2-3.2,1.6-5.9,1.6h-12.3v3.5h-3.1v-3.4h-5.4L1690.7,533.2z"/>
			<path class="st5" d="M1758.8,579.6c10.8,0,16.5,6.6,16.5,14.6c0,8.3-6.4,14.1-15.9,14.1c-10,0-16.5-6.2-16.5-14.6
				C1743,585.2,1749.5,579.6,1758.8,579.6z M1759.3,604c6.7,0,12.7-3.6,12.7-10s-5.9-10-13-10c-6.2,0-12.7,3.3-12.7,10
				C1746.3,600.6,1752.4,604,1759.3,604z"/>
			<path class="st5" d="M1769.9,574.9c1.1-1.8,2-4.5,2-7.3c0-4.1-2.2-6.6-5.3-6.6c-2.9,0-4.6,1.7-6.2,5.9c-1.8,5.1-4.5,8.3-8.9,8.3
				c-4.9,0-8.5-4-8.5-10.1c0-3.2,0.7-5.5,1.5-6.9l3.3,1.1c-0.6,1-1.5,3.1-1.5,6c0,4.3,2.6,5.9,4.7,5.9c2.9,0,4.4-1.9,6-6.2
				c2-5.3,4.6-8,9.2-8c4.8,0,9,3.6,9,11c0,3-0.9,6.3-2,8L1769.9,574.9z"/>
		</g>
	</g>
	<rect x="297.7" y="101.8" class="st1" width="383.5" height="75.9"/>
	<g class="st2">
		<path d="M332,139c-1.7,0.9-5.2,1.7-9.6,1.7c-10.3,0-18-6.5-18-18.4c0-11.4,7.7-19.1,19-19.1c4.5,0,7.4,1,8.6,1.6l-1.1,3.8
			c-1.8-0.9-4.3-1.5-7.3-1.5c-8.5,0-14.2,5.5-14.2,15c0,8.9,5.1,14.6,14,14.6c2.9,0,5.8-0.6,7.7-1.5L332,139z"/>
		<path d="M360.7,126.9c0,9.7-6.7,13.9-13,13.9c-7.1,0-12.5-5.2-12.5-13.4c0-8.7,5.7-13.9,13-13.9
			C355.7,113.5,360.7,118.9,360.7,126.9z M340,127.2c0,5.7,3.3,10,7.9,10c4.5,0,7.9-4.3,7.9-10.2c0-4.4-2.2-10-7.8-10
			S340,122.2,340,127.2z"/>
		<path d="M366.7,121.1c0-2.7-0.1-4.9-0.2-7.1h4.2l0.3,4.3h0.1c1.3-2.5,4.3-4.9,8.6-4.9c3.6,0,9.2,2.2,9.2,11.1v15.6h-4.8v-15.1
			c0-4.2-1.6-7.7-6-7.7c-3.1,0-5.6,2.2-6.4,4.9c-0.2,0.6-0.3,1.4-0.3,2.2v15.7h-4.8V121.1z"/>
		<path d="M402.2,106.5v7.5h6.8v3.6h-6.8v14.1c0,3.2,0.9,5.1,3.6,5.1c1.2,0,2.2-0.2,2.8-0.3l0.2,3.6c-0.9,0.4-2.4,0.6-4.2,0.6
			c-2.2,0-4-0.7-5.1-2c-1.3-1.4-1.8-3.7-1.8-6.8v-14.3h-4V114h4v-6.3L402.2,106.5z"/>
		<path d="M428.8,140.2l-0.4-3.3h-0.2c-1.5,2.1-4.3,3.9-8,3.9c-5.3,0-8-3.7-8-7.5c0-6.3,5.6-9.8,15.7-9.7V123c0-2.2-0.6-6-5.9-6
			c-2.4,0-5,0.8-6.8,1.9l-1.1-3.1c2.2-1.4,5.3-2.3,8.6-2.3c8,0,9.9,5.5,9.9,10.7v9.8c0,2.3,0.1,4.5,0.4,6.3H428.8z M428.1,126.8
			c-5.2-0.1-11.1,0.8-11.1,5.9c0,3.1,2.1,4.5,4.5,4.5c3.4,0,5.6-2.2,6.3-4.4c0.2-0.5,0.3-1,0.3-1.5V126.8z"/>
		<path d="M445.7,106.7c0.1,1.6-1.1,2.9-3,2.9c-1.7,0-2.9-1.3-2.9-2.9c0-1.7,1.2-3,3-3C444.5,103.7,445.7,105,445.7,106.7z
			 M440.4,140.2V114h4.8v26.1H440.4z"/>
		<path d="M453,121.1c0-2.7-0.1-4.9-0.2-7.1h4.2l0.3,4.3h0.1c1.3-2.5,4.3-4.9,8.6-4.9c3.6,0,9.2,2.2,9.2,11.1v15.6h-4.8v-15.1
			c0-4.2-1.6-7.7-6-7.7c-3.1,0-5.6,2.2-6.4,4.9c-0.2,0.6-0.3,1.4-0.3,2.2v15.7H453V121.1z"/>
		<path d="M485.6,128c0.1,6.4,4.2,9.1,9,9.1c3.4,0,5.5-0.6,7.2-1.4l0.8,3.4c-1.7,0.8-4.5,1.6-8.7,1.6c-8,0-12.9-5.3-12.9-13.2
			c0-7.9,4.6-14.1,12.3-14.1c8.5,0,10.8,7.5,10.8,12.3c0,1-0.1,1.7-0.2,2.2H485.6z M499.6,124.6c0.1-3-1.2-7.7-6.6-7.7
			c-4.8,0-6.9,4.4-7.3,7.7H499.6z"/>
		<path d="M510,122.2c0-3.1-0.1-5.7-0.2-8.2h4.2l0.2,5.1h0.2c1.2-3.5,4-5.7,7.2-5.7c0.5,0,0.9,0.1,1.4,0.2v4.5
			c-0.5-0.1-1-0.2-1.6-0.2c-3.3,0-5.7,2.5-6.4,6.1c-0.1,0.6-0.2,1.4-0.2,2.2v13.9H510V122.2z"/>
		<path d="M533.2,106.7c0.1,1.6-1.1,2.9-3,2.9c-1.7,0-2.9-1.3-2.9-2.9c0-1.7,1.2-3,3-3C532.1,103.7,533.2,105,533.2,106.7z
			 M527.9,140.2V114h4.8v26.1H527.9z"/>
		<path d="M537.6,137.4l11.8-15.4c1.1-1.4,2.2-2.6,3.4-4v-0.1h-14.1V114h19.9l-0.1,3l-11.7,15.2c-1.1,1.5-2.2,2.8-3.3,4.1v0.1h15.3
			v3.8h-21.2V137.4z"/>
		<path d="M578.1,140.2l-0.4-3.3h-0.2c-1.5,2.1-4.3,3.9-8,3.9c-5.3,0-8-3.7-8-7.5c0-6.3,5.6-9.8,15.7-9.7V123c0-2.2-0.6-6-5.9-6
			c-2.4,0-5,0.8-6.8,1.9l-1.1-3.1c2.2-1.4,5.3-2.3,8.6-2.3c8,0,9.9,5.5,9.9,10.7v9.8c0,2.3,0.1,4.5,0.4,6.3H578.1z M577.4,126.8
			c-5.2-0.1-11.1,0.8-11.1,5.9c0,3.1,2.1,4.5,4.5,4.5c3.4,0,5.6-2.2,6.3-4.4c0.2-0.5,0.3-1,0.3-1.5V126.8z"/>
		<path d="M595.2,106.5v7.5h6.8v3.6h-6.8v14.1c0,3.2,0.9,5.1,3.6,5.1c1.2,0,2.2-0.2,2.8-0.3l0.2,3.6c-0.9,0.4-2.4,0.6-4.2,0.6
			c-2.2,0-4-0.7-5.1-2c-1.3-1.4-1.8-3.7-1.8-6.8v-14.3h-4V114h4v-6.3L595.2,106.5z"/>
		<path d="M612.6,106.7c0.1,1.6-1.1,2.9-3,2.9c-1.7,0-2.9-1.3-2.9-2.9c0-1.7,1.2-3,3-3C611.5,103.7,612.6,105,612.6,106.7z
			 M607.4,140.2V114h4.8v26.1H607.4z"/>
		<path d="M643.6,126.9c0,9.7-6.7,13.9-13,13.9c-7.1,0-12.5-5.2-12.5-13.4c0-8.7,5.7-13.9,13-13.9
			C638.6,113.5,643.6,118.9,643.6,126.9z M622.9,127.2c0,5.7,3.3,10,7.9,10c4.5,0,7.9-4.3,7.9-10.2c0-4.4-2.2-10-7.8-10
			S622.9,122.2,622.9,127.2z"/>
		<path d="M649.6,121.1c0-2.7-0.1-4.9-0.2-7.1h4.2l0.3,4.3h0.1c1.3-2.5,4.3-4.9,8.6-4.9c3.6,0,9.2,2.2,9.2,11.1v15.6h-4.8v-15.1
			c0-4.2-1.6-7.7-6-7.7c-3.1,0-5.6,2.2-6.4,4.9c-0.2,0.6-0.3,1.4-0.3,2.2v15.7h-4.8V121.1z"/>
	</g>
	<rect x="1239.7" y="101.8" class="st1" width="383.5" height="75.9"/>
	<g class="st2">
		<path d="M1257.1,140.2l-11.9-36.4h5.1l5.7,17.9c1.6,4.9,2.9,9.3,3.9,13.6h0.1c1-4.2,2.5-8.8,4.2-13.6l6.2-18h5l-13,36.4H1257.1z"
			/>
		<path d="M1283.5,106.7c0.1,1.6-1.1,2.9-3,2.9c-1.7,0-2.9-1.3-2.9-2.9c0-1.7,1.2-3,3-3C1282.4,103.7,1283.5,105,1283.5,106.7z
			 M1278.2,140.2V114h4.8v26.1H1278.2z"/>
		<path d="M1290.8,122.2c0-3.1-0.1-5.7-0.2-8.2h4.2l0.2,5.1h0.2c1.2-3.5,4-5.7,7.2-5.7c0.5,0,0.9,0.1,1.3,0.2v4.5
			c-0.5-0.1-1-0.2-1.6-0.2c-3.3,0-5.7,2.5-6.4,6.1c-0.1,0.6-0.2,1.4-0.2,2.2v13.9h-4.7V122.2z"/>
		<path d="M1315.5,106.5v7.5h6.8v3.6h-6.8v14.1c0,3.2,0.9,5.1,3.6,5.1c1.2,0,2.2-0.2,2.8-0.3l0.2,3.6c-0.9,0.4-2.4,0.6-4.2,0.6
			c-2.2,0-4-0.7-5.1-2c-1.3-1.4-1.8-3.7-1.8-6.8v-14.3h-4.1V114h4.1v-6.3L1315.5,106.5z"/>
		<path d="M1349.5,133.1c0,2.7,0.1,5.1,0.2,7.1h-4.2l-0.3-4.3h-0.1c-1.2,2.1-4,4.9-8.6,4.9c-4.1,0-9-2.3-9-11.4V114h4.8v14.5
			c0,5,1.5,8.3,5.8,8.3c3.2,0,5.4-2.2,6.3-4.3c0.3-0.7,0.4-1.6,0.4-2.4v-16h4.8V133.1z"/>
		<path d="M1371.9,140.2l-0.4-3.3h-0.2c-1.5,2.1-4.3,3.9-8,3.9c-5.3,0-8-3.7-8-7.5c0-6.3,5.6-9.8,15.7-9.7V123c0-2.2-0.6-6-5.9-6
			c-2.4,0-5,0.8-6.8,1.9l-1.1-3.1c2.2-1.4,5.3-2.3,8.6-2.3c8,0,9.9,5.5,9.9,10.7v9.8c0,2.3,0.1,4.5,0.4,6.3H1371.9z M1371.2,126.8
			c-5.2-0.1-11.1,0.8-11.1,5.9c0,3.1,2.1,4.5,4.5,4.5c3.4,0,5.6-2.2,6.3-4.4c0.2-0.5,0.3-1,0.3-1.5V126.8z"/>
		<path d="M1383.4,101.8h4.8v38.3h-4.8V101.8z"/>
		<path d="M1438.5,124.2c-0.3-5.1-0.6-11.2-0.5-15.7h-0.2c-1.2,4.3-2.8,8.8-4.6,13.8l-6.4,17.7h-3.6l-5.9-17.3
			c-1.7-5.1-3.2-9.8-4.2-14.1h-0.1c-0.1,4.5-0.4,10.6-0.7,16.1l-1,15.6h-4.5l2.5-36.4h6l6.2,17.6c1.5,4.5,2.8,8.5,3.7,12.3h0.2
			c0.9-3.7,2.2-7.7,3.8-12.3l6.5-17.6h6l2.3,36.4h-4.6L1438.5,124.2z"/>
		<path d="M1465.8,140.2l-0.4-3.3h-0.2c-1.5,2.1-4.3,3.9-8,3.9c-5.3,0-8-3.7-8-7.5c0-6.3,5.6-9.8,15.7-9.7V123c0-2.2-0.6-6-5.9-6
			c-2.4,0-5,0.8-6.8,1.9l-1.1-3.1c2.2-1.4,5.3-2.3,8.6-2.3c8,0,9.9,5.5,9.9,10.7v9.8c0,2.3,0.1,4.5,0.4,6.3H1465.8z M1465.1,126.8
			c-5.2-0.1-11.1,0.8-11.1,5.9c0,3.1,2.1,4.5,4.5,4.5c3.4,0,5.6-2.2,6.3-4.4c0.2-0.5,0.3-1,0.3-1.5V126.8z"/>
		<path d="M1496,139.2c-1.2,0.6-4,1.5-7.5,1.5c-7.9,0-13-5.3-13-13.3c0-8,5.5-13.9,14-13.9c2.8,0,5.3,0.7,6.6,1.4l-1.1,3.7
			c-1.1-0.6-2.9-1.2-5.5-1.2c-6,0-9.2,4.4-9.2,9.9c0,6,3.9,9.8,9.1,9.8c2.7,0,4.5-0.7,5.8-1.3L1496,139.2z"/>
		<path d="M1501.6,101.8h4.8v16.3h0.1c0.8-1.4,1.9-2.5,3.4-3.3c1.4-0.8,3.1-1.3,4.9-1.3c3.5,0,9.1,2.2,9.1,11.2v15.6h-4.8v-15
			c0-4.2-1.6-7.8-6-7.8c-3.1,0-5.5,2.2-6.4,4.8c-0.3,0.6-0.3,1.3-0.3,2.3v15.8h-4.8V101.8z"/>
		<path d="M1536.8,106.7c0.1,1.6-1.1,2.9-3,2.9c-1.7,0-2.9-1.3-2.9-2.9c0-1.7,1.2-3,3-3C1535.7,103.7,1536.8,105,1536.8,106.7z
			 M1531.6,140.2V114h4.8v26.1H1531.6z"/>
		<path d="M1544.2,121.1c0-2.7-0.1-4.9-0.2-7.1h4.2l0.3,4.3h0.1c1.3-2.5,4.3-4.9,8.6-4.9c3.6,0,9.2,2.2,9.2,11.1v15.6h-4.8v-15.1
			c0-4.2-1.6-7.7-6-7.7c-3.1,0-5.6,2.2-6.4,4.9c-0.2,0.6-0.3,1.4-0.3,2.2v15.7h-4.8V121.1z"/>
		<path d="M1576.8,128c0.1,6.4,4.2,9.1,9,9.1c3.4,0,5.5-0.6,7.2-1.4l0.8,3.4c-1.7,0.8-4.5,1.6-8.7,1.6c-8,0-12.9-5.3-12.9-13.2
			c0-7.9,4.6-14.1,12.3-14.1c8.5,0,10.8,7.5,10.8,12.3c0,1-0.1,1.7-0.2,2.2H1576.8z M1590.7,124.6c0.1-3-1.2-7.7-6.6-7.7
			c-4.8,0-6.9,4.4-7.3,7.7H1590.7z"/>
		<path d="M1600.6,135.3c1.4,0.9,3.9,1.9,6.3,1.9c3.5,0,5.1-1.7,5.1-3.9c0-2.3-1.3-3.5-4.9-4.8c-4.7-1.7-6.9-4.3-6.9-7.4
			c0-4.2,3.4-7.7,9-7.7c2.6,0,5,0.8,6.4,1.6l-1.2,3.5c-1-0.6-2.9-1.5-5.3-1.5c-2.8,0-4.4,1.6-4.4,3.6c0,2.2,1.6,3.1,5,4.4
			c4.5,1.7,6.9,4,6.9,7.9c0,4.6-3.6,7.8-9.8,7.8c-2.9,0-5.5-0.7-7.3-1.8L1600.6,135.3z"/>
	</g>
</g>
</svg>
