<?xml version="1.0" encoding="utf-8"?>
<!-- Generator: Adobe Illustrator 23.0.1, SVG Export Plug-In . SVG Version: 6.00 Build 0)  -->
<svg version="1.1" id="Lager_1" xmlns="http://www.w3.org/2000/svg" xmlns:xlink="http://www.w3.org/1999/xlink" x="0px" y="0px"
	 viewBox="0 0 1920 1080" style="enable-background:new 0 0 1920 1080;" xml:space="preserve">
<style type="text/css">
	.st0{fill:#35DBC3;}
	.st1{fill:none;}
	.st2{fill:#FFFFFF;}
	.st3{font-family:'MyriadPro-Regular';}
	.st4{font-size:54px;}
	.st5{fill:#CCEDFF;}
	.st6{fill:#595959;}
	.st7{fill:#32AAE0;}
	.st8{fill:#006CC4;}
</style>
<g>
	<rect x="111" y="826" class="st0" width="740" height="134"/>
	<rect x="111" y="876" class="st1" width="740" height="84"/>
	<text transform="matrix(1 0 0 1 371.0845 914.3398)" class="st2 st3 st4">Hardware</text>
</g>
<rect x="111" y="676" class="st5" width="740" height="134"/>
<rect x="111" y="726" class="st1" width="740" height="84"/>
<text transform="matrix(1 0 0 1 221.1289 764.3398)" class="st6 st3 st4">Host Operating System</text>
<g>
	<rect x="111" y="527" class="st7" width="740" height="134"/>
	<rect x="111" y="577" class="st1" width="740" height="84"/>
	<text transform="matrix(1 0 0 1 401.0811 615.3398)" class="st2 st3 st4">Docker</text>
</g>
<rect x="111" y="216" class="st8" width="136.2" height="295"/>
<rect x="262.2" y="216" class="st8" width="136.2" height="295"/>
<rect x="111" y="216" class="st8" width="136.2" height="295"/>
<rect x="111" y="216" class="st8" width="136.2" height="295"/>
<rect x="111" y="216" class="st8" width="136.2" height="295"/>
<rect x="111" y="216" class="st8" width="136.2" height="295"/>
<rect x="111" y="216" class="st8" width="136.2" height="295"/>
<rect x="111" y="216" class="st8" width="136.2" height="295"/>
<rect x="111" y="216" class="st8" width="136.2" height="295"/>
<rect x="111" y="216" class="st8" width="136.2" height="295"/>
<rect x="413.4" y="216" class="st8" width="136.2" height="295"/>
<rect x="564.5" y="216" class="st8" width="136.2" height="295"/>
<rect x="714.8" y="216" class="st8" width="136.2" height="295"/>
<rect x="413.4" y="216" class="st8" width="136.2" height="295"/>
<rect x="413.4" y="216" class="st8" width="136.2" height="295"/>
<rect x="413.4" y="216" class="st8" width="136.2" height="295"/>
<rect x="413.4" y="216" class="st8" width="136.2" height="295"/>
<rect x="413.4" y="216" class="st8" width="136.2" height="295"/>
<rect x="413.4" y="216" class="st8" width="136.2" height="295"/>
<rect x="413.4" y="216" class="st8" width="136.2" height="295"/>
<rect x="413.4" y="216" class="st8" width="136.2" height="295"/>
<rect x="1053" y="472" class="st5" width="136.2" height="187"/>
<rect x="1204.2" y="472" class="st5" width="136.2" height="187"/>
<rect x="1053" y="472" class="st5" width="136.2" height="187"/>
<rect x="1053" y="472" class="st5" width="136.2" height="187"/>
<rect x="1053" y="472" class="st5" width="136.2" height="187"/>
<rect x="1053" y="472" class="st5" width="136.2" height="187"/>
<rect x="1053" y="472" class="st5" width="136.2" height="187"/>
<rect x="1053" y="472" class="st5" width="136.2" height="187"/>
<rect x="1053" y="472" class="st5" width="136.2" height="187"/>
<rect x="1053" y="472" class="st5" width="136.2" height="187"/>
<rect x="1355.4" y="472" class="st5" width="136.2" height="187"/>
<rect x="1506.5" y="472" class="st5" width="136.2" height="187"/>
<rect x="1656.8" y="472" class="st5" width="136.2" height="187"/>
<rect x="1355.4" y="472" class="st5" width="136.2" height="187"/>
<rect x="1355.4" y="472" class="st5" width="136.2" height="187"/>
<rect x="1355.4" y="472" class="st5" width="136.2" height="187"/>
<rect x="1355.4" y="472" class="st5" width="136.2" height="187"/>
<rect x="1355.4" y="472" class="st5" width="136.2" height="187"/>
<rect x="1355.4" y="472" class="st5" width="136.2" height="187"/>
<rect x="1355.4" y="472" class="st5" width="136.2" height="187"/>
<rect x="1355.4" y="472" class="st5" width="136.2" height="187"/>
<g>
	<rect x="1053" y="826" class="st0" width="740" height="134"/>
	<rect x="1053" y="876" class="st1" width="740" height="84"/>
	<text transform="matrix(1 0 0 1 1313.0845 914.3398)" class="st2 st3 st4">Hardware</text>
</g>
<g>
	<rect x="1053" y="676" class="st7" width="740" height="134"/>
	<rect x="1053" y="726" class="st1" width="740" height="84"/>
	<text transform="matrix(1 0 0 1 1301.313 764.3398)" class="st2 st3 st4">Hypervisor</text>
</g>
<g>
	<path class="st2" d="M180.9,464l11.4,3.8v4.9L156,460.3v-5.7l36.4-12.4v5l-11.4,3.9V464z M177.2,452l-10.5,3.6
		c-2.4,0.8-4.5,1.4-6.6,1.9v0.1c2.2,0.5,4.4,1.1,6.6,1.8l10.5,3.6V452z"/>
	<path class="st2" d="M174.7,437.1c-3.3,0-6,0.1-8.5,0.2v-4.3l4.5-0.2v-0.1c-3.2-1.9-5.1-5-5.1-9.3c0-6.3,5.3-11.1,13.3-11.1
		c9.4,0,14,5.7,14,11.9c0,3.5-1.5,6.5-4.1,8v0.1H203v4.7H174.7z M181.7,432.4c0.7,0,1.4-0.1,1.9-0.2c3.3-0.9,5.6-3.7,5.6-7.1
		c0-5-4.1-7.9-10.1-7.9c-5.2,0-9.7,2.8-9.7,7.8c0,3.2,2.3,6.3,5.9,7.2c0.6,0.2,1.3,0.3,1.9,0.3H181.7z"/>
	<path class="st2" d="M174.7,406.4c-3.3,0-6,0.1-8.5,0.2v-4.3l4.5-0.2V402c-3.2-1.9-5.1-5-5.1-9.3c0-6.3,5.3-11.1,13.3-11.1
		c9.4,0,14,5.7,14,11.9c0,3.5-1.5,6.5-4.1,8v0.1H203v4.7H174.7z M181.7,401.7c0.7,0,1.4-0.1,1.9-0.2c3.3-0.9,5.6-3.7,5.6-7.1
		c0-5-4.1-7.9-10.1-7.9c-5.2,0-9.7,2.8-9.7,7.8c0,3.2,2.3,6.3,5.9,7.2c0.6,0.2,1.3,0.3,1.9,0.3H181.7z"/>
	<path class="st2" d="M180.9,358.2l11.4,3.8v4.9L156,354.5v-5.7l36.4-12.4v5l-11.4,3.9V358.2z M177.2,346.3l-10.5,3.6
		c-2.4,0.8-4.5,1.4-6.6,1.9v0.1c2.2,0.5,4.4,1.1,6.6,1.8l10.5,3.6V346.3z"/>
</g>
<g>
	<path class="st2" d="M334.5,463.5l11.4,3.8v4.9l-36.4-12.4v-5.7l36.4-12.4v5l-11.4,3.9V463.5z M330.9,451.5l-10.5,3.6
		c-2.4,0.8-4.5,1.4-6.6,1.9v0.1c2.2,0.5,4.4,1.1,6.6,1.8l10.5,3.6V451.5z"/>
	<path class="st2" d="M328.4,436.6c-3.3,0-6,0.1-8.5,0.2v-4.3l4.5-0.2v-0.1c-3.2-1.9-5.1-5-5.1-9.3c0-6.3,5.3-11.1,13.3-11.1
		c9.4,0,14,5.7,14,11.9c0,3.5-1.5,6.5-4.1,8v0.1h14.2v4.7H328.4z M335.4,431.9c0.7,0,1.4-0.1,1.9-0.2c3.3-0.9,5.6-3.7,5.6-7.1
		c0-5-4.1-7.9-10.1-7.9c-5.2,0-9.7,2.8-9.7,7.8c0,3.2,2.3,6.3,5.9,7.2c0.6,0.2,1.3,0.3,1.9,0.3H335.4z"/>
	<path class="st2" d="M328.4,405.9c-3.3,0-6,0.1-8.5,0.2v-4.3l4.5-0.2v-0.1c-3.2-1.9-5.1-5-5.1-9.3c0-6.3,5.3-11.1,13.3-11.1
		c9.4,0,14,5.7,14,11.9c0,3.5-1.5,6.5-4.1,8v0.1h14.2v4.7H328.4z M335.4,401.2c0.7,0,1.4-0.1,1.9-0.2c3.3-0.9,5.6-3.7,5.6-7.1
		c0-5-4.1-7.9-10.1-7.9c-5.2,0-9.7,2.8-9.7,7.8c0,3.2,2.3,6.3,5.9,7.2c0.6,0.2,1.3,0.3,1.9,0.3H335.4z"/>
	<path class="st2" d="M310.1,363.6c-0.4-2.1-0.8-5.3-0.8-8.6c0-4.7,0.8-7.7,2.6-10c1.4-1.9,3.6-3,6.4-3c3.5,0,6.6,2.3,8,6.2h0.1
		c0.9-3.5,3.7-7.5,9.1-7.5c3.1,0,5.5,1.2,7.3,3.1c2.3,2.5,3.4,6.6,3.4,12.6c0,3.2-0.2,5.7-0.4,7.3H310.1z M325,358.9v-4.3
		c0-5-2.6-7.9-6.1-7.9c-4.3,0-5.9,3.2-5.9,8c0,2.2,0.2,3.4,0.3,4.2H325z M342.4,358.9c0.2-0.9,0.2-2.3,0.2-3.9
		c0-4.9-1.8-9.3-7.1-9.3c-5,0-7,4.3-7,9.4v3.9H342.4z"/>
</g>
<g>
	<path class="st2" d="M483,464.6l11.4,3.8v4.9L458,460.8v-5.7l36.4-12.4v5l-11.4,3.9V464.6z M479.3,452.6l-10.5,3.6
		c-2.4,0.8-4.5,1.4-6.6,1.9v0.1c2.2,0.5,4.4,1.1,6.6,1.8l10.5,3.6V452.6z"/>
	<path class="st2" d="M476.8,437.7c-3.3,0-6,0.1-8.5,0.2v-4.3l4.5-0.2v-0.1c-3.2-1.9-5.1-5-5.1-9.3c0-6.3,5.3-11.1,13.3-11.1
		c9.4,0,14,5.7,14,11.9c0,3.5-1.5,6.5-4.1,8v0.1h14.2v4.7H476.8z M483.8,433c0.7,0,1.4-0.1,1.9-0.2c3.3-0.9,5.6-3.7,5.6-7.1
		c0-5-4.1-7.9-10.1-7.9c-5.2,0-9.7,2.8-9.7,7.8c0,3.2,2.3,6.3,5.9,7.2c0.6,0.2,1.3,0.3,1.9,0.3H483.8z"/>
	<path class="st2" d="M476.8,407c-3.3,0-6,0.1-8.5,0.2V403l4.5-0.2v-0.1c-3.2-1.9-5.1-5-5.1-9.3c0-6.3,5.3-11.1,13.3-11.1
		c9.4,0,14,5.7,14,11.9c0,3.5-1.5,6.5-4.1,8v0.1h14.2v4.7H476.8z M483.8,402.3c0.7,0,1.4-0.1,1.9-0.2c3.3-0.9,5.6-3.7,5.6-7.1
		c0-5-4.1-7.9-10.1-7.9c-5.2,0-9.7,2.8-9.7,7.8c0,3.2,2.3,6.3,5.9,7.2c0.6,0.2,1.3,0.3,1.9,0.3H483.8z"/>
	<path class="st2" d="M493.2,339.2c0.9,1.7,1.7,5.2,1.7,9.6c0,10.3-6.5,18-18.4,18c-11.4,0-19.1-7.7-19.1-19c0-4.5,1-7.4,1.6-8.6
		l3.8,1.1c-0.9,1.8-1.5,4.3-1.5,7.3c0,8.5,5.5,14.2,15,14.2c8.9,0,14.6-5.1,14.6-14c0-2.9-0.6-5.8-1.5-7.7L493.2,339.2z"/>
</g>
<g>
	<path class="st2" d="M633.7,466.9l11.4,3.8v4.9l-36.4-12.4v-5.7l36.4-12.4v5l-11.4,3.9V466.9z M630,455l-10.5,3.6
		c-2.4,0.8-4.5,1.4-6.6,1.9v0.1c2.2,0.5,4.4,1.1,6.6,1.8L630,466V455z"/>
	<path class="st2" d="M627.5,440.1c-3.3,0-6,0.1-8.5,0.2V436l4.5-0.2v-0.1c-3.2-1.9-5.1-5-5.1-9.3c0-6.3,5.3-11.1,13.3-11.1
		c9.4,0,14,5.7,14,11.9c0,3.5-1.5,6.5-4.1,8v0.1h14.2v4.7H627.5z M634.5,435.4c0.7,0,1.4-0.1,1.9-0.2c3.3-0.9,5.6-3.7,5.6-7.1
		c0-5-4.1-7.9-10.1-7.9c-5.2,0-9.7,2.8-9.7,7.8c0,3.2,2.3,6.3,5.9,7.2c0.6,0.2,1.3,0.3,1.9,0.3H634.5z"/>
	<path class="st2" d="M627.5,409.4c-3.3,0-6,0.1-8.5,0.2v-4.3l4.5-0.2V405c-3.2-1.9-5.1-5-5.1-9.3c0-6.3,5.3-11.1,13.3-11.1
		c9.4,0,14,5.7,14,11.9c0,3.5-1.5,6.5-4.1,8v0.1h14.2v4.7H627.5z M634.5,404.7c0.7,0,1.4-0.1,1.9-0.2c3.3-0.9,5.6-3.7,5.6-7.1
		c0-5-4.1-7.9-10.1-7.9c-5.2,0-9.7,2.8-9.7,7.8c0,3.2,2.3,6.3,5.9,7.2c0.6,0.2,1.3,0.3,1.9,0.3H634.5z"/>
	<path class="st2" d="M609.2,367c-0.4-2.9-0.8-6.3-0.8-10c0-6.8,1.6-11.6,4.5-14.7c3-3.2,7.2-5.1,13.1-5.1c5.9,0,10.8,1.8,14.1,5.2
		c3.4,3.4,5.2,9,5.2,16.1c0,3.3-0.2,6.2-0.4,8.5H609.2z M641.4,362.3c0.2-1.2,0.3-2.9,0.3-4.8c0-10-5.6-15.5-15.4-15.5
		c-8.6-0.1-14,4.8-14,14.7c0,2.4,0.2,4.3,0.5,5.5H641.4z"/>
</g>
<g>
	<path class="st2" d="M783.5,463.4l11.4,3.8v4.9l-36.4-12.4V454l36.4-12.4v5l-11.4,3.9V463.4z M779.9,451.4l-10.5,3.6
		c-2.4,0.8-4.5,1.4-6.6,1.9v0.1c2.2,0.5,4.4,1.1,6.6,1.8l10.5,3.6V451.4z"/>
	<path class="st2" d="M777.4,436.5c-3.3,0-6,0.1-8.5,0.2v-4.3l4.5-0.2v-0.1c-3.2-1.9-5.1-5-5.1-9.3c0-6.3,5.3-11.1,13.3-11.1
		c9.4,0,14,5.7,14,11.9c0,3.5-1.5,6.5-4.1,8v0.1h14.2v4.7H777.4z M784.3,431.8c0.7,0,1.4-0.1,1.9-0.2c3.3-0.9,5.6-3.7,5.6-7.1
		c0-5-4.1-7.9-10.1-7.9c-5.2,0-9.7,2.8-9.7,7.8c0,3.2,2.3,6.3,5.9,7.2c0.6,0.2,1.3,0.3,1.9,0.3H784.3z"/>
	<path class="st2" d="M777.4,405.8c-3.3,0-6,0.1-8.5,0.2v-4.3l4.5-0.2v-0.1c-3.2-1.9-5.1-5-5.1-9.3c0-6.3,5.3-11.1,13.3-11.1
		c9.4,0,14,5.7,14,11.9c0,3.5-1.5,6.5-4.1,8v0.1h14.2v4.7H777.4z M784.3,401.1c0.7,0,1.4-0.1,1.9-0.2c3.3-0.9,5.6-3.7,5.6-7.1
		c0-5-4.1-7.9-10.1-7.9c-5.2,0-9.7,2.8-9.7,7.8c0,3.2,2.3,6.3,5.9,7.2c0.6,0.2,1.3,0.3,1.9,0.3H784.3z"/>
	<path class="st2" d="M777.9,344.6v14.1H791V343h3.9v20.5h-36.4v-19.7h3.9v15H774v-14.1H777.9z"/>
</g>
<rect x="1053" y="216" class="st8" width="136.2" height="241"/>
<rect x="1204.2" y="216" class="st8" width="136.2" height="241"/>
<rect x="1053" y="216" class="st8" width="136.2" height="241"/>
<rect x="1053" y="216" class="st8" width="136.2" height="241"/>
<rect x="1053" y="216" class="st8" width="136.2" height="241"/>
<rect x="1053" y="216" class="st8" width="136.2" height="241"/>
<rect x="1053" y="216" class="st8" width="136.2" height="241"/>
<rect x="1053" y="216" class="st8" width="136.2" height="241"/>
<rect x="1053" y="216" class="st8" width="136.2" height="241"/>
<rect x="1053" y="216" class="st8" width="136.2" height="241"/>
<rect x="1355.4" y="216" class="st8" width="136.2" height="241"/>
<rect x="1506.5" y="216" class="st8" width="136.2" height="241"/>
<rect x="1656.8" y="216" class="st8" width="136.2" height="241"/>
<rect x="1355.4" y="216" class="st8" width="136.2" height="241"/>
<rect x="1355.4" y="216" class="st8" width="136.2" height="241"/>
<rect x="1355.4" y="216" class="st8" width="136.2" height="241"/>
<rect x="1355.4" y="216" class="st8" width="136.2" height="241"/>
<rect x="1355.4" y="216" class="st8" width="136.2" height="241"/>
<rect x="1355.4" y="216" class="st8" width="136.2" height="241"/>
<rect x="1355.4" y="216" class="st8" width="136.2" height="241"/>
<rect x="1355.4" y="216" class="st8" width="136.2" height="241"/>
<g>
	<path class="st2" d="M1122.9,425l11.4,3.8v4.9l-36.4-12.4v-5.7l36.4-12.4v5l-11.4,3.9V425z M1119.2,413l-10.5,3.6
		c-2.4,0.8-4.5,1.4-6.6,1.9v0.1c2.2,0.5,4.4,1.1,6.6,1.8l10.5,3.6V413z"/>
	<path class="st2" d="M1116.7,398.1c-3.3,0-6,0.1-8.5,0.2v-4.3l4.5-0.2v-0.1c-3.2-1.9-5.1-5-5.1-9.3c0-6.3,5.3-11.1,13.3-11.1
		c9.4,0,14,5.7,14,11.9c0,3.5-1.5,6.5-4.1,8v0.1h14.2v4.7H1116.7z M1123.7,393.4c0.7,0,1.4-0.1,1.9-0.2c3.3-0.9,5.6-3.7,5.6-7.1
		c0-5-4.1-7.9-10.1-7.9c-5.2,0-9.7,2.8-9.7,7.8c0,3.2,2.3,6.3,5.9,7.2c0.6,0.2,1.3,0.3,1.9,0.3H1123.7z"/>
	<path class="st2" d="M1116.7,367.4c-3.3,0-6,0.1-8.5,0.2v-4.3l4.5-0.2V363c-3.2-1.9-5.1-5-5.1-9.3c0-6.3,5.3-11.1,13.3-11.1
		c9.4,0,14,5.7,14,11.9c0,3.5-1.5,6.5-4.1,8v0.1h14.2v4.7H1116.7z M1123.7,362.7c0.7,0,1.4-0.1,1.9-0.2c3.3-0.9,5.6-3.7,5.6-7.1
		c0-5-4.1-7.9-10.1-7.9c-5.2,0-9.7,2.8-9.7,7.8c0,3.2,2.3,6.3,5.9,7.2c0.6,0.2,1.3,0.3,1.9,0.3H1123.7z"/>
	<path class="st2" d="M1122.9,319.2l11.4,3.8v4.9l-36.4-12.4v-5.7l36.4-12.4v5l-11.4,3.9V319.2z M1119.2,307.3l-10.5,3.6
		c-2.4,0.8-4.5,1.4-6.6,1.9v0.1c2.2,0.5,4.4,1.1,6.6,1.8l10.5,3.6V307.3z"/>
</g>
<g>
	<path class="st2" d="M1276.5,424.5l11.4,3.8v4.9l-36.4-12.4v-5.7l36.4-12.4v5l-11.4,3.9V424.5z M1272.9,412.5l-10.5,3.6
		c-2.4,0.8-4.5,1.4-6.6,1.9v0.1c2.2,0.5,4.4,1.1,6.6,1.8l10.5,3.6V412.5z"/>
	<path class="st2" d="M1270.4,397.6c-3.3,0-6,0.1-8.5,0.2v-4.3l4.5-0.2v-0.1c-3.2-1.9-5.1-5-5.1-9.3c0-6.3,5.3-11.1,13.3-11.1
		c9.4,0,14,5.7,14,11.9c0,3.5-1.5,6.5-4.1,8v0.1h14.2v4.7H1270.4z M1277.4,392.9c0.7,0,1.4-0.1,1.9-0.2c3.3-0.9,5.6-3.7,5.6-7.1
		c0-5-4.1-7.9-10.1-7.9c-5.2,0-9.7,2.8-9.7,7.8c0,3.2,2.3,6.3,5.9,7.2c0.6,0.2,1.3,0.3,1.9,0.3H1277.4z"/>
	<path class="st2" d="M1270.4,366.9c-3.3,0-6,0.1-8.5,0.2v-4.3l4.5-0.2v-0.1c-3.2-1.9-5.1-5-5.1-9.3c0-6.3,5.3-11.1,13.3-11.1
		c9.4,0,14,5.7,14,11.9c0,3.5-1.5,6.5-4.1,8v0.1h14.2v4.7H1270.4z M1277.4,362.2c0.7,0,1.4-0.1,1.9-0.2c3.3-0.9,5.6-3.7,5.6-7.1
		c0-5-4.1-7.9-10.1-7.9c-5.2,0-9.7,2.8-9.7,7.8c0,3.2,2.3,6.3,5.9,7.2c0.6,0.2,1.3,0.3,1.9,0.3H1277.4z"/>
	<path class="st2" d="M1252.1,324.6c-0.4-2.1-0.8-5.3-0.8-8.6c0-4.7,0.8-7.7,2.6-10c1.4-1.9,3.6-3,6.4-3c3.5,0,6.6,2.3,8,6.2h0.1
		c0.9-3.5,3.7-7.5,9.1-7.5c3.1,0,5.5,1.2,7.3,3.1c2.3,2.5,3.4,6.6,3.4,12.6c0,3.2-0.2,5.7-0.4,7.3H1252.1z M1267,319.9v-4.3
		c0-5-2.6-7.9-6.1-7.9c-4.3,0-5.9,3.2-5.9,8c0,2.2,0.2,3.4,0.3,4.2H1267z M1284.4,319.9c0.2-0.9,0.2-2.3,0.2-3.9
		c0-4.9-1.8-9.3-7.1-9.3c-5,0-7,4.3-7,9.4v3.9H1284.4z"/>
</g>
<g>
	<path class="st2" d="M1425,425.6l11.4,3.8v4.9l-36.4-12.4v-5.7l36.4-12.4v5l-11.4,3.9V425.6z M1421.3,413.6l-10.5,3.6
		c-2.4,0.8-4.5,1.4-6.6,1.9v0.1c2.2,0.5,4.4,1.1,6.6,1.8l10.5,3.6V413.6z"/>
	<path class="st2" d="M1418.8,398.7c-3.3,0-6,0.1-8.5,0.2v-4.3l4.5-0.2v-0.1c-3.2-1.9-5.1-5-5.1-9.3c0-6.3,5.3-11.1,13.3-11.1
		c9.4,0,14,5.7,14,11.9c0,3.5-1.5,6.5-4.1,8v0.1h14.2v4.7H1418.8z M1425.8,394c0.7,0,1.4-0.1,1.9-0.2c3.3-0.9,5.6-3.7,5.6-7.1
		c0-5-4.1-7.9-10.1-7.9c-5.2,0-9.7,2.8-9.7,7.8c0,3.2,2.3,6.3,5.9,7.2c0.6,0.2,1.3,0.3,1.9,0.3H1425.8z"/>
	<path class="st2" d="M1418.8,368c-3.3,0-6,0.1-8.5,0.2V364l4.5-0.2v-0.1c-3.2-1.9-5.1-5-5.1-9.3c0-6.3,5.3-11.1,13.3-11.1
		c9.4,0,14,5.7,14,11.9c0,3.5-1.5,6.5-4.1,8v0.1h14.2v4.7H1418.8z M1425.8,363.3c0.7,0,1.4-0.1,1.9-0.2c3.3-0.9,5.6-3.7,5.6-7.1
		c0-5-4.1-7.9-10.1-7.9c-5.2,0-9.7,2.8-9.7,7.8c0,3.2,2.3,6.3,5.9,7.2c0.6,0.2,1.3,0.3,1.9,0.3H1425.8z"/>
	<path class="st2" d="M1435.2,300.2c0.9,1.7,1.7,5.2,1.7,9.6c0,10.3-6.5,18-18.4,18c-11.4,0-19.1-7.7-19.1-19c0-4.5,1-7.4,1.6-8.6
		l3.8,1.1c-0.9,1.8-1.5,4.3-1.5,7.3c0,8.5,5.5,14.2,15,14.2c8.9,0,14.6-5.1,14.6-14c0-2.9-0.6-5.8-1.5-7.7L1435.2,300.2z"/>
</g>
<g>
	<path class="st2" d="M1575.7,427.9l11.4,3.8v4.9l-36.4-12.4v-5.7l36.4-12.4v5l-11.4,3.9V427.9z M1572,416l-10.5,3.6
		c-2.4,0.8-4.5,1.4-6.6,1.9v0.1c2.2,0.5,4.4,1.1,6.6,1.8l10.5,3.6V416z"/>
	<path class="st2" d="M1569.5,401.1c-3.3,0-6,0.1-8.5,0.2V397l4.5-0.2v-0.1c-3.2-1.9-5.1-5-5.1-9.3c0-6.3,5.3-11.1,13.3-11.1
		c9.4,0,14,5.7,14,11.9c0,3.5-1.5,6.5-4.1,8v0.1h14.2v4.7H1569.5z M1576.5,396.4c0.7,0,1.4-0.1,1.9-0.2c3.3-0.9,5.6-3.7,5.6-7.1
		c0-5-4.1-7.9-10.1-7.9c-5.2,0-9.7,2.8-9.7,7.8c0,3.2,2.3,6.3,5.9,7.2c0.6,0.2,1.3,0.3,1.9,0.3H1576.5z"/>
	<path class="st2" d="M1569.5,370.4c-3.3,0-6,0.1-8.5,0.2v-4.3l4.5-0.2V366c-3.2-1.9-5.1-5-5.1-9.3c0-6.3,5.3-11.1,13.3-11.1
		c9.4,0,14,5.7,14,11.9c0,3.5-1.5,6.5-4.1,8v0.1h14.2v4.7H1569.5z M1576.5,365.7c0.7,0,1.4-0.1,1.9-0.2c3.3-0.9,5.6-3.7,5.6-7.1
		c0-5-4.1-7.9-10.1-7.9c-5.2,0-9.7,2.8-9.7,7.8c0,3.2,2.3,6.3,5.9,7.2c0.6,0.2,1.3,0.3,1.9,0.3H1576.5z"/>
	<path class="st2" d="M1551.2,328c-0.4-2.9-0.8-6.3-0.8-10c0-6.8,1.6-11.6,4.5-14.7c3-3.2,7.2-5.1,13.1-5.1c5.9,0,10.8,1.8,14.1,5.2
		c3.4,3.4,5.2,9,5.2,16.1c0,3.3-0.2,6.2-0.4,8.5H1551.2z M1583.4,323.3c0.2-1.2,0.3-2.9,0.3-4.8c0-10-5.6-15.5-15.4-15.5
		c-8.6-0.1-14,4.8-14,14.7c0,2.4,0.2,4.3,0.5,5.5H1583.4z"/>
</g>
<g>
	<path class="st2" d="M1725.5,424.4l11.4,3.8v4.9l-36.4-12.4V415l36.4-12.4v5l-11.4,3.9V424.4z M1721.9,412.4l-10.5,3.6
		c-2.4,0.8-4.5,1.4-6.6,1.9v0.1c2.2,0.5,4.4,1.1,6.6,1.8l10.5,3.6V412.4z"/>
	<path class="st2" d="M1719.4,397.5c-3.3,0-6,0.1-8.5,0.2v-4.3l4.5-0.2v-0.1c-3.2-1.9-5.1-5-5.1-9.3c0-6.3,5.3-11.1,13.3-11.1
		c9.4,0,14,5.7,14,11.9c0,3.5-1.5,6.5-4.1,8v0.1h14.2v4.7H1719.4z M1726.3,392.8c0.7,0,1.4-0.1,1.9-0.2c3.3-0.9,5.6-3.7,5.6-7.1
		c0-5-4.1-7.9-10.1-7.9c-5.2,0-9.7,2.8-9.7,7.8c0,3.2,2.3,6.3,5.9,7.2c0.6,0.2,1.3,0.3,1.9,0.3H1726.3z"/>
	<path class="st2" d="M1719.4,366.8c-3.3,0-6,0.1-8.5,0.2v-4.3l4.5-0.2v-0.1c-3.2-1.9-5.1-5-5.1-9.3c0-6.3,5.3-11.1,13.3-11.1
		c9.4,0,14,5.7,14,11.9c0,3.5-1.5,6.5-4.1,8v0.1h14.2v4.7H1719.4z M1726.3,362.1c0.7,0,1.4-0.1,1.9-0.2c3.3-0.9,5.6-3.7,5.6-7.1
		c0-5-4.1-7.9-10.1-7.9c-5.2,0-9.7,2.8-9.7,7.8c0,3.2,2.3,6.3,5.9,7.2c0.6,0.2,1.3,0.3,1.9,0.3H1726.3z"/>
	<path class="st2" d="M1719.9,305.6v14.1h13.1V304h3.9v20.5h-36.4v-19.7h3.9v15h11.5v-14.1H1719.9z"/>
</g>
<g>
	<g>
		<path class="st6" d="M1109.3,593.3c0.7,1.8,1.7,5.4,1.7,9.6c0,4.7-1.2,8.7-4.1,11.7c-2.6,2.7-6.8,4.4-11.7,4.4
			c-9.3,0-16.2-6.5-16.2-17c0-3.6,0.8-6.5,1.4-7.8l3.3,1c-0.7,1.7-1.3,3.8-1.3,6.9c0,7.6,4.7,12.6,12.6,12.6c8,0,12.7-4.8,12.7-12.1
			c0-2.7-0.4-4.5-0.8-5.4h-9.3v6.4h-3.3v-10.3H1109.3z"/>
		<path class="st6" d="M1104.6,568.4c2.3,0,4.4,0,6.1-0.2v3.6l-3.7,0.2v0.1c1.8,1.1,4.2,3.4,4.2,7.4c0,3.5-2,7.8-9.9,7.8h-13.2v-4.1
			h12.5c4.3,0,7.2-1.3,7.2-5c0-2.7-1.9-4.7-3.7-5.4c-0.6-0.2-1.3-0.4-2.1-0.4h-13.8v-4.1H1104.6z"/>
		<path class="st6" d="M1100.2,559.3c5.5-0.1,7.8-3.6,7.8-7.7c0-2.9-0.5-4.7-1.2-6.2l2.9-0.7c0.7,1.4,1.4,3.9,1.4,7.5
			c0,6.9-4.6,11.1-11.3,11.1c-6.8,0-12.1-4-12.1-10.6c0-7.3,6.5-9.3,10.6-9.3c0.8,0,1.5,0.1,1.9,0.1V559.3z M1097.3,547.3
			c-2.6,0-6.7,1.1-6.7,5.7c0,4.1,3.8,6,6.7,6.3V547.3z"/>
		<path class="st6" d="M1106.5,538.9c0.8-1.2,1.6-3.3,1.6-5.4c0-3-1.5-4.4-3.3-4.4c-2,0-3,1.2-4.1,4.2c-1.4,4-3.7,6-6.4,6
			c-3.6,0-6.6-2.9-6.6-7.8c0-2.3,0.7-4.3,1.4-5.5l3,1c-0.6,0.9-1.3,2.5-1.3,4.6c0,2.4,1.4,3.8,3.1,3.8c1.9,0,2.7-1.3,3.8-4.3
			c1.5-3.9,3.4-5.9,6.8-5.9c4,0,6.7,3.1,6.7,8.4c0,2.5-0.6,4.7-1.5,6.3L1106.5,538.9z"/>
		<path class="st6" d="M1081.7,515h6.5v-5.9h3.1v5.9h12.1c2.8,0,4.4-0.8,4.4-3.1c0-1.1-0.1-1.9-0.3-2.4l3.1-0.2
			c0.3,0.8,0.6,2,0.6,3.6c0,1.9-0.6,3.4-1.7,4.4c-1.2,1.2-3.2,1.6-5.9,1.6h-12.3v3.5h-3.1V519h-5.4L1081.7,515z"/>
		<path class="st6" d="M1149.8,561.4c10.8,0,16.5,6.6,16.5,14.6c0,8.3-6.4,14.1-15.9,14.1c-10,0-16.5-6.2-16.5-14.6
			C1134,567,1140.5,561.4,1149.8,561.4z M1150.3,585.8c6.7,0,12.7-3.6,12.7-10c0-6.4-5.9-10-13-10c-6.2,0-12.7,3.3-12.7,10
			C1137.3,582.4,1143.4,585.8,1150.3,585.8z"/>
		<path class="st6" d="M1160.9,556.7c1.1-1.8,2-4.5,2-7.3c0-4.1-2.2-6.6-5.3-6.6c-2.9,0-4.6,1.7-6.2,5.9c-1.8,5.1-4.5,8.3-8.9,8.3
			c-4.9,0-8.5-4-8.5-10.1c0-3.2,0.7-5.5,1.5-6.9l3.3,1.1c-0.6,1-1.5,3.1-1.5,6c0,4.3,2.6,5.9,4.7,5.9c2.9,0,4.4-1.9,6-6.2
			c2-5.3,4.6-8,9.2-8c4.8,0,9,3.6,9,11c0,3-0.9,6.3-2,8L1160.9,556.7z"/>
	</g>
</g>
<g>
	<g>
		<path class="st6" d="M1257.3,593.3c0.7,1.8,1.7,5.4,1.7,9.6c0,4.7-1.2,8.7-4.1,11.7c-2.6,2.7-6.8,4.4-11.7,4.4
			c-9.3,0-16.2-6.5-16.2-17c0-3.6,0.8-6.5,1.4-7.8l3.3,1c-0.7,1.7-1.3,3.8-1.3,6.9c0,7.6,4.7,12.6,12.6,12.6c8,0,12.7-4.8,12.7-12.1
			c0-2.7-0.4-4.5-0.8-5.4h-9.3v6.4h-3.3v-10.3H1257.3z"/>
		<path class="st6" d="M1252.6,568.4c2.3,0,4.4,0,6.1-0.2v3.6l-3.7,0.2v0.1c1.8,1.1,4.2,3.4,4.2,7.4c0,3.5-2,7.8-9.9,7.8h-13.2v-4.1
			h12.5c4.3,0,7.2-1.3,7.2-5c0-2.7-1.9-4.7-3.7-5.4c-0.6-0.2-1.3-0.4-2.1-0.4h-13.8v-4.1H1252.6z"/>
		<path class="st6" d="M1248.2,559.3c5.5-0.1,7.8-3.6,7.8-7.7c0-2.9-0.5-4.7-1.2-6.2l2.9-0.7c0.7,1.4,1.4,3.9,1.4,7.5
			c0,6.9-4.6,11.1-11.3,11.1c-6.8,0-12.1-4-12.1-10.6c0-7.3,6.5-9.3,10.6-9.3c0.8,0,1.5,0.1,1.9,0.1V559.3z M1245.3,547.3
			c-2.6,0-6.7,1.1-6.7,5.7c0,4.1,3.8,6,6.7,6.3V547.3z"/>
		<path class="st6" d="M1254.5,538.9c0.8-1.2,1.6-3.3,1.6-5.4c0-3-1.5-4.4-3.3-4.4c-2,0-3,1.2-4.1,4.2c-1.4,4-3.7,6-6.4,6
			c-3.6,0-6.6-2.9-6.6-7.8c0-2.3,0.7-4.3,1.4-5.5l3,1c-0.6,0.9-1.3,2.5-1.3,4.6c0,2.4,1.4,3.8,3.1,3.8c1.9,0,2.7-1.3,3.8-4.3
			c1.5-3.9,3.4-5.9,6.8-5.9c4,0,6.7,3.1,6.7,8.4c0,2.5-0.6,4.7-1.5,6.3L1254.5,538.9z"/>
		<path class="st6" d="M1229.7,515h6.5v-5.9h3.1v5.9h12.1c2.8,0,4.4-0.8,4.4-3.1c0-1.1-0.1-1.9-0.3-2.4l3.1-0.2
			c0.3,0.8,0.6,2,0.6,3.6c0,1.9-0.6,3.4-1.7,4.4c-1.2,1.2-3.2,1.6-5.9,1.6h-12.3v3.5h-3.1V519h-5.4L1229.7,515z"/>
		<path class="st6" d="M1297.8,561.4c10.8,0,16.5,6.6,16.5,14.6c0,8.3-6.4,14.1-15.9,14.1c-10,0-16.5-6.2-16.5-14.6
			C1282,567,1288.5,561.4,1297.8,561.4z M1298.3,585.8c6.7,0,12.7-3.6,12.7-10c0-6.4-5.9-10-13-10c-6.2,0-12.7,3.3-12.7,10
			C1285.3,582.4,1291.4,585.8,1298.3,585.8z"/>
		<path class="st6" d="M1308.9,556.7c1.1-1.8,2-4.5,2-7.3c0-4.1-2.2-6.6-5.3-6.6c-2.9,0-4.6,1.7-6.2,5.9c-1.8,5.1-4.5,8.3-8.9,8.3
			c-4.9,0-8.5-4-8.5-10.1c0-3.2,0.7-5.5,1.5-6.9l3.3,1.1c-0.6,1-1.5,3.1-1.5,6c0,4.3,2.6,5.9,4.7,5.9c2.9,0,4.4-1.9,6-6.2
			c2-5.3,4.6-8,9.2-8c4.8,0,9,3.6,9,11c0,3-0.9,6.3-2,8L1308.9,556.7z"/>
	</g>
</g>
<g>
	<g>
		<path class="st6" d="M1409.3,593.3c0.7,1.8,1.7,5.4,1.7,9.6c0,4.7-1.2,8.7-4.1,11.7c-2.6,2.7-6.8,4.4-11.7,4.4
			c-9.3,0-16.2-6.5-16.2-17c0-3.6,0.8-6.5,1.4-7.8l3.3,1c-0.7,1.7-1.3,3.8-1.3,6.9c0,7.6,4.7,12.6,12.6,12.6c8,0,12.7-4.8,12.7-12.1
			c0-2.7-0.4-4.5-0.8-5.4h-9.3v6.4h-3.3v-10.3H1409.3z"/>
		<path class="st6" d="M1404.6,568.4c2.3,0,4.4,0,6.1-0.2v3.6l-3.7,0.2v0.1c1.8,1.1,4.2,3.4,4.2,7.4c0,3.5-2,7.8-9.9,7.8h-13.2v-4.1
			h12.5c4.3,0,7.2-1.3,7.2-5c0-2.7-1.9-4.7-3.7-5.4c-0.6-0.2-1.3-0.4-2.1-0.4h-13.8v-4.1H1404.6z"/>
		<path class="st6" d="M1400.2,559.3c5.5-0.1,7.8-3.6,7.8-7.7c0-2.9-0.5-4.7-1.2-6.2l2.9-0.7c0.7,1.4,1.4,3.9,1.4,7.5
			c0,6.9-4.6,11.1-11.3,11.1c-6.8,0-12.1-4-12.1-10.6c0-7.3,6.5-9.3,10.6-9.3c0.8,0,1.5,0.1,1.9,0.1V559.3z M1397.3,547.3
			c-2.6,0-6.7,1.1-6.7,5.7c0,4.1,3.8,6,6.7,6.3V547.3z"/>
		<path class="st6" d="M1406.5,538.9c0.8-1.2,1.6-3.3,1.6-5.4c0-3-1.5-4.4-3.3-4.4c-2,0-3,1.2-4.1,4.2c-1.4,4-3.7,6-6.4,6
			c-3.6,0-6.6-2.9-6.6-7.8c0-2.3,0.7-4.3,1.4-5.5l3,1c-0.6,0.9-1.3,2.5-1.3,4.6c0,2.4,1.4,3.8,3.1,3.8c1.9,0,2.7-1.3,3.8-4.3
			c1.5-3.9,3.4-5.9,6.8-5.9c4,0,6.7,3.1,6.7,8.4c0,2.5-0.6,4.7-1.5,6.3L1406.5,538.9z"/>
		<path class="st6" d="M1381.7,515h6.5v-5.9h3.1v5.9h12.1c2.8,0,4.4-0.8,4.4-3.1c0-1.1-0.1-1.9-0.3-2.4l3.1-0.2
			c0.3,0.8,0.6,2,0.6,3.6c0,1.9-0.6,3.4-1.7,4.4c-1.2,1.2-3.2,1.6-5.9,1.6h-12.3v3.5h-3.1V519h-5.4L1381.7,515z"/>
		<path class="st6" d="M1449.8,561.4c10.8,0,16.5,6.6,16.5,14.6c0,8.3-6.4,14.1-15.9,14.1c-10,0-16.5-6.2-16.5-14.6
			C1434,567,1440.5,561.4,1449.8,561.4z M1450.3,585.8c6.7,0,12.7-3.6,12.7-10c0-6.4-5.9-10-13-10c-6.2,0-12.7,3.3-12.7,10
			C1437.3,582.4,1443.4,585.8,1450.3,585.8z"/>
		<path class="st6" d="M1460.9,556.7c1.1-1.8,2-4.5,2-7.3c0-4.1-2.2-6.6-5.3-6.6c-2.9,0-4.6,1.7-6.2,5.9c-1.8,5.1-4.5,8.3-8.9,8.3
			c-4.9,0-8.5-4-8.5-10.1c0-3.2,0.7-5.5,1.5-6.9l3.3,1.1c-0.6,1-1.5,3.1-1.5,6c0,4.3,2.6,5.9,4.7,5.9c2.9,0,4.4-1.9,6-6.2
			c2-5.3,4.6-8,9.2-8c4.8,0,9,3.6,9,11c0,3-0.9,6.3-2,8L1460.9,556.7z"/>
	</g>
</g>
<g>
	<g>
		<path class="st6" d="M1560.3,593.3c0.7,1.8,1.7,5.4,1.7,9.6c0,4.7-1.2,8.7-4.1,11.7c-2.6,2.7-6.8,4.4-11.7,4.4
			c-9.3,0-16.2-6.5-16.2-17c0-3.6,0.8-6.5,1.4-7.8l3.3,1c-0.7,1.7-1.3,3.8-1.3,6.9c0,7.6,4.7,12.6,12.6,12.6c8,0,12.7-4.8,12.7-12.1
			c0-2.7-0.4-4.5-0.8-5.4h-9.3v6.4h-3.3v-10.3H1560.3z"/>
		<path class="st6" d="M1555.6,568.4c2.3,0,4.4,0,6.1-0.2v3.6l-3.7,0.2v0.1c1.8,1.1,4.2,3.4,4.2,7.4c0,3.5-2,7.8-9.9,7.8h-13.2v-4.1
			h12.5c4.3,0,7.2-1.3,7.2-5c0-2.7-1.9-4.7-3.7-5.4c-0.6-0.2-1.3-0.4-2.1-0.4h-13.8v-4.1H1555.6z"/>
		<path class="st6" d="M1551.2,559.3c5.5-0.1,7.8-3.6,7.8-7.7c0-2.9-0.5-4.7-1.2-6.2l2.9-0.7c0.7,1.4,1.4,3.9,1.4,7.5
			c0,6.9-4.6,11.1-11.3,11.1c-6.8,0-12.1-4-12.1-10.6c0-7.3,6.5-9.3,10.6-9.3c0.8,0,1.5,0.1,1.9,0.1V559.3z M1548.3,547.3
			c-2.6,0-6.7,1.1-6.7,5.7c0,4.1,3.8,6,6.7,6.3V547.3z"/>
		<path class="st6" d="M1557.5,538.9c0.8-1.2,1.6-3.3,1.6-5.4c0-3-1.5-4.4-3.3-4.4c-2,0-3,1.2-4.1,4.2c-1.4,4-3.7,6-6.4,6
			c-3.6,0-6.6-2.9-6.6-7.8c0-2.3,0.7-4.3,1.4-5.5l3,1c-0.6,0.9-1.3,2.5-1.3,4.6c0,2.4,1.4,3.8,3.1,3.8c1.9,0,2.7-1.3,3.8-4.3
			c1.5-3.9,3.4-5.9,6.8-5.9c4,0,6.7,3.1,6.7,8.4c0,2.5-0.6,4.7-1.5,6.3L1557.5,538.9z"/>
		<path class="st6" d="M1532.7,515h6.5v-5.9h3.1v5.9h12.1c2.8,0,4.4-0.8,4.4-3.1c0-1.1-0.1-1.9-0.3-2.4l3.1-0.2
			c0.3,0.8,0.6,2,0.6,3.6c0,1.9-0.6,3.4-1.7,4.4c-1.2,1.2-3.2,1.6-5.9,1.6h-12.3v3.5h-3.1V519h-5.4L1532.7,515z"/>
		<path class="st6" d="M1600.8,561.4c10.8,0,16.5,6.6,16.5,14.6c0,8.3-6.4,14.1-15.9,14.1c-10,0-16.5-6.2-16.5-14.6
			C1585,567,1591.5,561.4,1600.8,561.4z M1601.3,585.8c6.7,0,12.7-3.6,12.7-10c0-6.4-5.9-10-13-10c-6.2,0-12.7,3.3-12.7,10
			C1588.3,582.4,1594.4,585.8,1601.3,585.8z"/>
		<path class="st6" d="M1611.9,556.7c1.1-1.8,2-4.5,2-7.3c0-4.1-2.2-6.6-5.3-6.6c-2.9,0-4.6,1.7-6.2,5.9c-1.8,5.1-4.5,8.3-8.9,8.3
			c-4.9,0-8.5-4-8.5-10.1c0-3.2,0.7-5.5,1.5-6.9l3.3,1.1c-0.6,1-1.5,3.1-1.5,6c0,4.3,2.6,5.9,4.7,5.9c2.9,0,4.4-1.9,6-6.2
			c2-5.3,4.6-8,9.2-8c4.8,0,9,3.6,9,11c0,3-0.9,6.3-2,8L1611.9,556.7z"/>
	</g>
</g>
<g>
	<g>
		<path class="st6" d="M1710.3,593.3c0.7,1.8,1.7,5.4,1.7,9.6c0,4.7-1.2,8.7-4.1,11.7c-2.6,2.7-6.8,4.4-11.7,4.4
			c-9.3,0-16.2-6.5-16.2-17c0-3.6,0.8-6.5,1.4-7.8l3.3,1c-0.7,1.7-1.3,3.8-1.3,6.9c0,7.6,4.7,12.6,12.6,12.6c8,0,12.7-4.8,12.7-12.1
			c0-2.7-0.4-4.5-0.8-5.4h-9.3v6.4h-3.3v-10.3H1710.3z"/>
		<path class="st6" d="M1705.6,568.4c2.3,0,4.4,0,6.1-0.2v3.6l-3.7,0.2v0.1c1.8,1.1,4.2,3.4,4.2,7.4c0,3.5-2,7.8-9.9,7.8h-13.2v-4.1
			h12.5c4.3,0,7.2-1.3,7.2-5c0-2.7-1.9-4.7-3.7-5.4c-0.6-0.2-1.3-0.4-2.1-0.4h-13.8v-4.1H1705.6z"/>
		<path class="st6" d="M1701.2,559.3c5.5-0.1,7.8-3.6,7.8-7.7c0-2.9-0.5-4.7-1.2-6.2l2.9-0.7c0.7,1.4,1.4,3.9,1.4,7.5
			c0,6.9-4.6,11.1-11.3,11.1c-6.8,0-12.1-4-12.1-10.6c0-7.3,6.5-9.3,10.6-9.3c0.8,0,1.5,0.1,1.9,0.1V559.3z M1698.3,547.3
			c-2.6,0-6.7,1.1-6.7,5.7c0,4.1,3.8,6,6.7,6.3V547.3z"/>
		<path class="st6" d="M1707.5,538.9c0.8-1.2,1.6-3.3,1.6-5.4c0-3-1.5-4.4-3.3-4.4c-2,0-3,1.2-4.1,4.2c-1.4,4-3.7,6-6.4,6
			c-3.6,0-6.6-2.9-6.6-7.8c0-2.3,0.7-4.3,1.4-5.5l3,1c-0.6,0.9-1.3,2.5-1.3,4.6c0,2.4,1.4,3.8,3.1,3.8c1.9,0,2.7-1.3,3.8-4.3
			c1.5-3.9,3.4-5.9,6.8-5.9c4,0,6.7,3.1,6.7,8.4c0,2.5-0.6,4.7-1.5,6.3L1707.5,538.9z"/>
		<path class="st6" d="M1682.7,515h6.5v-5.9h3.1v5.9h12.1c2.8,0,4.4-0.8,4.4-3.1c0-1.1-0.1-1.9-0.3-2.4l3.1-0.2
			c0.3,0.8,0.6,2,0.6,3.6c0,1.9-0.6,3.4-1.7,4.4c-1.2,1.2-3.2,1.6-5.9,1.6h-12.3v3.5h-3.1V519h-5.4L1682.7,515z"/>
		<path class="st6" d="M1750.8,561.4c10.8,0,16.5,6.6,16.5,14.6c0,8.3-6.4,14.1-15.9,14.1c-10,0-16.5-6.2-16.5-14.6
			C1735,567,1741.5,561.4,1750.8,561.4z M1751.3,585.8c6.7,0,12.7-3.6,12.7-10c0-6.4-5.9-10-13-10c-6.2,0-12.7,3.3-12.7,10
			C1738.3,582.4,1744.4,585.8,1751.3,585.8z"/>
		<path class="st6" d="M1761.9,556.7c1.1-1.8,2-4.5,2-7.3c0-4.1-2.2-6.6-5.3-6.6c-2.9,0-4.6,1.7-6.2,5.9c-1.8,5.1-4.5,8.3-8.9,8.3
			c-4.9,0-8.5-4-8.5-10.1c0-3.2,0.7-5.5,1.5-6.9l3.3,1.1c-0.6,1-1.5,3.1-1.5,6c0,4.3,2.6,5.9,4.7,5.9c2.9,0,4.4-1.9,6-6.2
			c2-5.3,4.6-8,9.2-8c4.8,0,9,3.6,9,11c0,3-0.9,6.3-2,8L1761.9,556.7z"/>
	</g>
</g>
<rect x="289.7" y="83.6" class="st1" width="383.5" height="75.9"/>
<text transform="matrix(1 0 0 1 294.417 121.9849)" class="st3 st4">Containerization</text>
<rect x="1231.7" y="83.6" class="st1" width="383.5" height="75.9"/>
<text transform="matrix(1 0 0 1 1236.9839 121.9849)" class="st3 st4">Virtual Machines</text>
</svg>
