<?xml version="1.0" encoding="utf-8"?>
<!-- Generator: Adobe Illustrator 23.0.1, SVG Export Plug-In . SVG Version: 6.00 Build 0)  -->
<svg version="1.1" id="Lager_1" xmlns="http://www.w3.org/2000/svg" xmlns:xlink="http://www.w3.org/1999/xlink" x="0px" y="0px"
	 viewBox="0 0 1920 757.9" style="enable-background:new 0 0 1920 757.9;" xml:space="preserve">
<style type="text/css">
	.st0{opacity:0.39;}
	.st1{fill:#922B24;}
	.st2{fill:#91751C;}
	.st3{fill:#508E69;}
	.st4{fill:#3E5E96;}
	.st5{fill:#925020;}
	.st6{fill:#913194;}
	.st7{fill:#489192;}
</style>
<title>Resurs 2</title>
<g class="st0">
	<polygon class="st1" points="1110.6,757.9 414.7,757.9 571.6,486.1 645,359.1 762.6,155.2 819.8,254.2 986.3,542.6 1043.4,641.6 
		1110,756.8 	"/>
	<polygon class="st2" points="728.5,757.9 -100.7,757.9 313.9,39.8 371.1,138.8 	"/>
	<polygon class="st3" points="1778.1,757.9 1297.1,757.9 1372.7,627 1446,500 1537.6,341.3 1594.8,440.4 	"/>
	<polygon class="st4" points="1448.2,757.9 861.9,757.9 868.6,746.4 986.3,542.6 1059.6,415.5 1155.1,250.2 1212.2,349.2 
		1372.7,627 1429.8,726 	"/>
</g>
<polygon class="st1" points="1116.8,514.5 976.3,757.9 875.2,757.9 702.1,458 893.2,127.1 "/>
<polygon class="st5" points="875.2,757.9 529,757.9 628.8,585.1 702.1,458 868.6,746.4 "/>
<polygon class="st2" points="702.1,458 875.2,757.9 529,757.9 13.7,757.9 371.1,138.8 444.4,11.8 645,359.1 "/>
<polygon class="st3" points="1594.9,757.9 1503.2,599 1594.8,440.4 1668.1,313.3 1924.8,757.9 "/>
<polygon class="st6" points="1116.8,514.5 1257.3,757.9 976.3,757.9 "/>
<polygon class="st7" points="1594.9,757.9 1411.4,757.9 1429.8,726 1503.2,599 "/>
<polygon class="st4" points="1503.2,599 1429.8,726 1411.4,757.9 1257.3,757.9 1116.8,514.5 1212.2,349.2 1285.6,222.1 1446,500 "/>
</svg>
